# This file uses centimeters as units for non-parametric coordinates.

mtllib Esc_HoleMid.mtl
g default
v 9.057304 -1.739359 -9.057304
v 7.941817 -1.739359 -9.057304
v 6.331149 -1.739359 -9.057304
v -6.313235 -1.739359 -9.047518
v -7.508785 -1.739359 -9.057304
v -9.057304 -1.739359 -9.057304
v 9.057304 1.739359 -9.057304
v 7.941817 1.739359 -9.057304
v 6.331149 1.739359 -9.057304
v -6.313235 1.739359 -9.047518
v -7.508785 1.739359 -9.057304
v -9.057304 1.739359 -9.057304
v 9.057304 1.739359 -6.469503
v 8.493132 1.739359 -8.493132
v 6.956516 1.739359 -7.536027
v -6.636872 1.739359 -8.681596
v -8.493132 1.739359 -8.493132
v -9.057304 1.739359 -6.469503
v 9.057304 1.739359 -3.881702
v 8.493132 1.739359 -5.095878
v 5.765817 1.351399 -4.598025
v -5.716178 2.130008 -5.745032
v -8.493132 1.739359 -5.095878
v -9.057304 1.739359 -3.881702
v 9.057304 1.739359 -1.293901
v 8.493132 1.739359 -1.698626
v 6.313337 2.025307 -0.893478
v -7.161762 1.210695 -1.499760
v -8.493132 1.739359 -1.698626
v -9.057304 1.739359 -1.293901
v 9.057304 1.739359 1.293901
v 8.493132 1.739359 1.698626
v 5.829882 1.184393 1.733576
v -5.857732 2.109994 2.072442
v -8.493132 1.739359 1.698626
v -9.057304 1.739359 1.293901
v 9.057304 1.739359 3.881702
v 8.493132 1.739359 5.095879
v 6.628808 2.074863 4.356293
v -6.833327 1.325667 5.282108
v -8.493132 1.739359 5.095879
v -9.057304 1.739359 3.881702
v 9.057304 1.739359 6.469503
v 8.493132 1.739359 8.493132
v 5.716932 1.739359 6.590195
v -4.985069 1.739359 7.401646
v -8.493132 1.739359 8.493132
v -9.057304 1.739359 6.469503
v 9.057304 1.739359 9.057304
v 7.691387 1.739359 9.057304
v 6.325582 1.739359 9.057304
v -6.305563 1.739359 9.057304
v -7.532835 1.739359 9.057304
v -9.057304 1.739359 9.057304
v 9.057304 -1.739359 9.057304
v 7.691387 -1.739359 9.057304
v 6.325582 -1.739359 9.057304
v -6.305563 -1.739359 9.057304
v -7.532835 -1.739359 9.057304
v -9.057304 -1.739359 9.057304
v 9.057304 -1.739359 6.469503
v 8.276287 -1.739359 8.276287
v 5.586826 -1.739359 6.373350
v -4.854962 -1.739359 7.184802
v -8.276287 -1.739359 8.276287
v -9.057304 -1.739359 6.469503
v 9.057304 -1.739359 3.881702
v 8.276287 -1.739359 4.965773
v 6.628808 -1.739359 4.356292
v -6.833327 -1.739359 5.282107
v -8.276287 -1.739359 4.965773
v -9.057304 -1.739359 3.881702
v 9.057304 -1.739359 1.293901
v 8.276287 -1.739359 1.655257
v 5.829882 -1.739359 1.733576
v -5.857732 -1.739359 2.072441
v -8.276287 -1.739359 1.655257
v -9.057304 -1.739359 1.293901
v 9.057304 -1.739359 -1.293901
v 8.276287 -1.739359 -1.655258
v 6.313337 -1.739359 -0.893479
v -7.161762 -1.739359 -1.499760
v -8.276287 -1.739359 -1.655258
v -9.057304 -1.739359 -1.293901
v 9.057304 -1.739359 -3.881702
v 8.276287 -1.739359 -4.965773
v 5.765817 -1.739359 -4.598025
v -5.716178 -1.739359 -5.745032
v -8.276287 -1.739359 -4.965773
v -9.057304 -1.739359 -3.881702
v 9.057304 -1.739359 -6.469503
v 8.276287 -1.739359 -8.276287
v 6.826410 -1.739359 -7.319182
v -6.506766 -1.739359 -8.464752
v -8.276287 -1.739359 -8.276287
v -9.057304 -1.739359 -6.469503
vt 0.375000 0.000000
vt 0.410714 0.000000
vt 0.446429 0.500000
vt 0.553571 0.500000
vt 0.589286 0.000000
vt 0.625000 0.000000
vt 0.375000 0.250000
vt 0.410714 0.250000
vt 0.446429 0.250000
vt 0.553571 0.250000
vt 0.589286 0.250000
vt 0.625000 0.250000
vt 0.375000 0.285714
vt 0.410714 0.285714
vt 0.446429 0.285714
vt 0.553571 0.285714
vt 0.589286 0.285714
vt 0.625000 0.285714
vt 0.375000 0.321429
vt 0.410714 0.321429
vt 0.446429 0.321429
vt 0.553571 0.321429
vt 0.589286 0.321429
vt 0.625000 0.321429
vt 0.375000 0.357143
vt 0.410714 0.357143
vt 0.446429 0.357143
vt 0.553571 0.357143
vt 0.589286 0.357143
vt 0.625000 0.357143
vt 0.375000 0.392857
vt 0.410714 0.392857
vt 0.446429 0.392857
vt 0.553571 0.392857
vt 0.589286 0.392857
vt 0.625000 0.392857
vt 0.375000 0.428571
vt 0.410714 0.428571
vt 0.446429 0.428571
vt 0.553571 0.428571
vt 0.589286 0.428571
vt 0.625000 0.428571
vt 0.375000 0.464286
vt 0.410714 0.464286
vt 0.446429 0.464286
vt 0.553571 0.464286
vt 0.589286 0.464286
vt 0.625000 0.464286
vt 0.375000 0.500000
vt 0.410714 0.500000
vt 0.446429 0.500000
vt 0.553571 0.500000
vt 0.589286 0.500000
vt 0.625000 0.500000
vt 0.375000 0.750000
vt 0.410714 0.750000
vt 0.446429 0.750000
vt 0.553571 0.750000
vt 0.589286 0.750000
vt 0.625000 0.750000
vt 0.375000 0.785714
vt 0.410714 0.785714
vt 0.446429 0.785714
vt 0.553571 0.785714
vt 0.589286 0.785714
vt 0.625000 0.785714
vt 0.375000 0.821429
vt 0.410714 0.821429
vt 0.446429 0.821429
vt 0.553571 0.821429
vt 0.589286 0.821429
vt 0.625000 0.821429
vt 0.375000 0.857143
vt 0.410714 0.857143
vt 0.446429 0.857143
vt 0.553571 0.857143
vt 0.589286 0.857143
vt 0.625000 0.857143
vt 0.375000 0.892857
vt 0.410714 0.892857
vt 0.446429 0.892857
vt 0.553571 0.892857
vt 0.589286 0.892857
vt 0.625000 0.892857
vt 0.375000 0.928571
vt 0.410714 0.928571
vt 0.446429 0.928571
vt 0.553571 0.928571
vt 0.589286 0.928571
vt 0.625000 0.928571
vt 0.375000 0.964286
vt 0.410714 0.964286
vt 0.446429 0.964286
vt 0.553571 0.964286
vt 0.589286 0.964286
vt 0.625000 0.964286
vt 0.375000 1.000000
vt 0.410714 1.000000
vt 0.589286 1.000000
vt 0.625000 1.000000
vt 0.875000 0.000000
vt 0.839286 0.000000
vt 0.803571 0.000000
vt 0.767857 0.000000
vt 0.732143 0.000000
vt 0.696429 0.000000
vt 0.660714 0.000000
vt 0.875000 0.250000
vt 0.839286 0.250000
vt 0.803571 0.250000
vt 0.767857 0.250000
vt 0.732143 0.250000
vt 0.696429 0.250000
vt 0.660714 0.250000
vt 0.125000 0.000000
vt 0.160714 0.000000
vt 0.196429 0.000000
vt 0.232143 0.000000
vt 0.267857 0.000000
vt 0.303571 0.000000
vt 0.339286 0.000000
vt 0.125000 0.250000
vt 0.160714 0.250000
vt 0.196429 0.250000
vt 0.232143 0.250000
vt 0.267857 0.250000
vt 0.303571 0.250000
vt 0.339286 0.250000
vn 0.000000 0.000000 -1.000000
vn 0.000000 0.000000 -1.000000
vn 0.000000 0.000000 -1.000000
vn 0.000000 0.000000 -1.000000
vn 0.000000 0.000000 -1.000000
vn 0.000000 0.000000 -1.000000
vn 0.008186 0.000000 -0.999966
vn 0.003566 0.000000 -0.999994
vn 0.003566 0.000000 -0.999994
vn 0.008186 0.000000 -0.999966
vn 0.000000 0.000000 -1.000000
vn 0.000000 0.000000 -1.000000
vn 0.000000 1.000000 -0.000000
vn 0.000000 1.000000 -0.000000
vn -0.039204 0.998926 0.024688
vn 0.000000 1.000000 -0.000000
vn 0.000000 1.000000 -0.000000
vn -0.063082 0.997217 0.039724
vn 0.000000 1.000000 -0.000000
vn 0.000000 1.000000 -0.000000
vn -0.072589 0.996654 -0.037578
vn -0.082757 0.995649 -0.042842
vn 0.000000 1.000000 -0.000000
vn 0.000000 1.000000 -0.000000
vn -0.047931 0.998599 -0.022406
vn 0.000000 1.000000 -0.000000
vn -0.054803 0.997464 -0.045406
vn -0.011086 0.999033 0.042540
vn -0.037046 0.999064 0.022343
vn 0.000000 1.000000 -0.000000
vn -0.033429 0.999406 -0.008391
vn 0.000000 1.000000 -0.000000
vn -0.038303 0.998975 0.024110
vn 0.043135 0.999042 0.007332
vn 0.053588 0.998563 0.000304
vn 0.000000 1.000000 -0.000000
vn -0.023321 0.999726 0.001889
vn 0.000000 1.000000 -0.000000
vn -0.029065 0.999561 0.005797
vn 0.022976 0.999655 -0.012768
vn 0.022425 0.999714 0.008304
vn 0.000000 1.000000 -0.000000
vn 0.008878 0.999863 -0.014006
vn 0.000000 1.000000 -0.000000
vn 0.004874 0.999246 -0.038521
vn 0.022914 0.999679 0.010790
vn 0.035873 0.999297 -0.010882
vn 0.000000 1.000000 -0.000000
vn 0.017304 0.999333 0.032148
vn 0.000000 1.000000 -0.000000
vn 0.029487 0.998063 0.054783
vn 0.040524 0.997274 -0.061655
vn 0.054198 0.995120 -0.082459
vn 0.000000 1.000000 -0.000000
vn 0.000000 1.000000 -0.000000
vn 0.000000 1.000000 -0.000000
vn 0.000000 1.000000 -0.000000
vn 0.000000 1.000000 -0.000000
vn 0.000000 1.000000 -0.000000
vn 0.000000 1.000000 -0.000000
vn -0.000000 0.000000 1.000000
vn -0.000000 0.000000 1.000000
vn -0.000000 0.000000 1.000000
vn -0.000000 0.000000 1.000000
vn -0.000000 0.000000 1.000000
vn -0.000000 0.000000 1.000000
vn -0.000000 0.000000 1.000000
vn -0.000000 0.000000 1.000000
vn -0.000000 0.000000 1.000000
vn -0.000000 0.000000 1.000000
vn -0.000000 0.000000 1.000000
vn -0.000000 0.000000 1.000000
vn 0.000000 -1.000000 0.000000
vn 0.000000 -1.000000 0.000000
vn 0.000000 -1.000000 0.000000
vn 0.000000 -1.000000 0.000000
vn 0.000000 -1.000000 0.000000
vn 0.000000 -1.000000 0.000000
vn 0.000000 -1.000000 0.000000
vn 0.000000 -1.000000 0.000000
vn 0.000000 -1.000000 0.000000
vn 0.000000 -1.000000 0.000000
vn 0.000000 -1.000000 0.000000
vn 0.000000 -1.000000 0.000000
vn 0.000000 -1.000000 0.000000
vn 0.000000 -1.000000 0.000000
vn 0.000000 -1.000000 0.000000
vn 0.000000 -1.000000 0.000000
vn 0.000000 -1.000000 0.000000
vn 0.000000 -1.000000 0.000000
vn 0.000000 -1.000000 0.000000
vn 0.000000 -1.000000 0.000000
vn 0.000000 -1.000000 0.000000
vn 0.000000 -1.000000 0.000000
vn 0.000000 -1.000000 0.000000
vn 0.000000 -1.000000 0.000000
vn 0.000000 -1.000000 0.000000
vn 0.000000 -1.000000 0.000000
vn 0.000000 -1.000000 0.000000
vn 0.000000 -1.000000 0.000000
vn 0.000000 -1.000000 0.000000
vn 0.000000 -1.000000 0.000000
vn 0.000000 -1.000000 0.000000
vn 0.000000 -1.000000 0.000000
vn 0.000000 -1.000000 0.000000
vn 0.000000 -1.000000 0.000000
vn 0.000000 -1.000000 0.000000
vn 0.000000 -1.000000 0.000000
vn 0.000000 -1.000000 0.000000
vn 0.000000 -1.000000 0.000000
vn 0.000000 -1.000000 0.000000
vn 0.000000 -1.000000 0.000000
vn 0.000000 -1.000000 0.000000
vn 0.000000 -1.000000 0.000000
vn 0.000000 -1.000000 0.000000
vn 0.000000 -1.000000 0.000000
vn 0.000000 -1.000000 0.000000
vn 0.000000 -1.000000 0.000000
vn 0.000000 -1.000000 0.000000
vn 0.000000 -1.000000 0.000000
vn -1.000000 0.000000 -0.000000
vn -1.000000 0.000000 -0.000000
vn -1.000000 0.000000 -0.000000
vn -1.000000 0.000000 -0.000000
vn -1.000000 0.000000 -0.000000
vn -1.000000 0.000000 -0.000000
vn -1.000000 0.000000 -0.000000
vn -1.000000 0.000000 -0.000000
vn -1.000000 0.000000 -0.000000
vn -1.000000 0.000000 -0.000000
vn -1.000000 0.000000 -0.000000
vn -1.000000 0.000000 -0.000000
vn -1.000000 0.000000 -0.000000
vn -1.000000 0.000000 -0.000000
vn -1.000000 0.000000 -0.000000
vn -1.000000 0.000000 -0.000000
vn 1.000000 0.000000 0.000000
vn 1.000000 0.000000 0.000000
vn 1.000000 0.000000 0.000000
vn 1.000000 0.000000 0.000000
vn 1.000000 0.000000 0.000000
vn 1.000000 0.000000 0.000000
vn 1.000000 0.000000 0.000000
vn 1.000000 0.000000 0.000000
vn 1.000000 0.000000 0.000000
vn 1.000000 0.000000 0.000000
vn 1.000000 0.000000 0.000000
vn 1.000000 0.000000 0.000000
vn 1.000000 0.000000 0.000000
vn 1.000000 0.000000 0.000000
vn 1.000000 0.000000 0.000000
vn 1.000000 0.000000 0.000000
vn -0.945302 0.027807 0.325008
vn -0.945302 0.027807 0.325008
vn -0.945302 0.027807 0.325008
vn -0.945302 0.027807 0.325008
vn -0.929304 0.006216 -0.369264
vn -0.929304 0.006216 -0.369264
vn -0.929304 0.006216 -0.369264
vn -0.929304 0.006216 -0.369264
vn -0.989254 0.000000 0.146208
vn -0.989254 0.000000 0.146208
vn -0.989254 0.000000 0.146208
vn -0.989254 0.000000 0.146208
vn -0.983485 -0.000000 -0.180990
vn -0.983485 -0.000000 -0.180990
vn -0.983485 -0.000000 -0.180990
vn -0.983485 -0.000000 -0.180990
vn -0.956602 -0.000000 0.291398
vn -0.956602 -0.000000 0.291398
vn -0.956602 -0.000000 0.291398
vn -0.956602 -0.000000 0.291398
vn -0.909102 0.028575 -0.415593
vn -0.909102 0.028575 -0.415593
vn -0.909102 0.028575 -0.415593
vn -0.909102 0.028575 -0.415593
vn 0.722086 0.037249 -0.690800
vn 0.722086 0.037249 -0.690800
vn 0.722086 0.037249 -0.690800
vn 0.722086 0.037249 -0.690800
vn 0.956778 0.000000 0.290818
vn 0.956778 0.000000 0.290818
vn 0.956778 0.000000 0.290818
vn 0.956778 0.000000 0.290818
vn 0.939366 -0.000000 -0.342915
vn 0.939366 -0.000000 -0.342915
vn 0.939366 -0.000000 -0.342915
vn 0.939366 -0.000000 -0.342915
vn 0.946624 -0.000000 0.322341
vn 0.946624 -0.000000 0.322341
vn 0.946624 -0.000000 0.322341
vn 0.946624 -0.000000 0.322341
vn 0.956959 0.008383 -0.290103
vn 0.956959 0.008383 -0.290103
vn 0.956959 0.008383 -0.290103
vn 0.956959 0.008383 -0.290103
vn 0.877580 0.031322 0.478405
vn 0.877581 0.031322 0.478405
vn 0.877580 0.031322 0.478405
vn 0.877580 0.031322 0.478405
vn 0.786422 -0.004545 0.617673
vn 0.786422 -0.004545 0.617673
vn 0.786422 -0.004545 0.617673
vn 0.786422 -0.004545 0.617673
vn -0.967399 0.010204 0.253050
vn -0.967399 0.010204 0.253050
vn -0.967399 0.010204 0.253050
vn -0.967399 0.010204 0.253050
s 1
g pCube3
usemtl initialShadingGroup
f 1/1/1 2/2/2 8/8/3 7/7/4
f 2/2/2 3/3/5 9/9/6 8/8/3
s 2
f 4/4/7 5/5/8 11/11/9 10/10/10
f 5/5/8 6/6/11 12/12/12 11/11/9
s 3
f 7/7/13 8/8/14 14/14/15 13/13/16
f 8/8/14 9/9/17 15/15/18 14/14/15
s 4
f 10/10/19 11/11/20 17/17/21 16/16/22
f 11/11/20 12/12/23 18/18/24 17/17/21
s 3
f 13/13/16 14/14/15 20/20/25 19/19/26
f 14/14/15 15/15/18 21/21/27 20/20/25
s 4
f 16/16/22 17/17/21 23/23/28 22/22/29
f 17/17/21 18/18/24 24/24/30 23/23/28
s 3
f 19/19/26 20/20/25 26/26/31 25/25/32
f 20/20/25 21/21/27 27/27/33 26/26/31
s 4
f 22/22/29 23/23/28 29/29/34 28/28/35
f 23/23/28 24/24/30 30/30/36 29/29/34
s 3
f 25/25/32 26/26/31 32/32/37 31/31/38
f 26/26/31 27/27/33 33/33/39 32/32/37
s 4
f 28/28/35 29/29/34 35/35/40 34/34/41
f 29/29/34 30/30/36 36/36/42 35/35/40
s 3
f 31/31/38 32/32/37 38/38/43 37/37/44
f 32/32/37 33/33/39 39/39/45 38/38/43
s 4
f 34/34/41 35/35/40 41/41/46 40/40/47
f 35/35/40 36/36/42 42/42/48 41/41/46
s 3
f 37/37/44 38/38/43 44/44/49 43/43/50
f 38/38/43 39/39/45 45/45/51 44/44/49
s 4
f 40/40/47 41/41/46 47/47/52 46/46/53
f 41/41/46 42/42/48 48/48/54 47/47/52
s 3
f 43/43/50 44/44/49 50/50/55 49/49/56
f 44/44/49 45/45/51 51/51/57 50/50/55
s 4
f 46/46/53 47/47/52 53/53/58 52/52/59
f 47/47/52 48/48/54 54/54/60 53/53/58
s 5
f 49/49/61 50/50/62 56/56/63 55/55/64
f 50/50/62 51/51/65 57/57/66 56/56/63
s 6
f 52/52/67 53/53/68 59/59/69 58/58/70
f 53/53/68 54/54/71 60/60/72 59/59/69
s 7
f 55/55/73 56/56/74 62/62/75 61/61/76
f 56/56/74 57/57/77 63/63/78 62/62/75
s 8
f 58/58/79 59/59/80 65/65/81 64/64/82
f 59/59/80 60/60/83 66/66/84 65/65/81
s 7
f 61/61/76 62/62/75 68/68/85 67/67/86
f 62/62/75 63/63/78 69/69/87 68/68/85
s 8
f 64/64/82 65/65/81 71/71/88 70/70/89
f 65/65/81 66/66/84 72/72/90 71/71/88
s 7
f 67/67/86 68/68/85 74/74/91 73/73/92
f 68/68/85 69/69/87 75/75/93 74/74/91
s 8
f 70/70/89 71/71/88 77/77/94 76/76/95
f 71/71/88 72/72/90 78/78/96 77/77/94
s 7
f 73/73/92 74/74/91 80/80/97 79/79/98
f 74/74/91 75/75/93 81/81/99 80/80/97
s 8
f 76/76/95 77/77/94 83/83/100 82/82/101
f 77/77/94 78/78/96 84/84/102 83/83/100
s 7
f 79/79/98 80/80/97 86/86/103 85/85/104
f 80/80/97 81/81/99 87/87/105 86/86/103
s 8
f 82/82/101 83/83/100 89/89/106 88/88/107
f 83/83/100 84/84/102 90/90/108 89/89/106
s 7
f 85/85/104 86/86/103 92/92/109 91/91/110
f 86/86/103 87/87/105 93/93/111 92/92/109
s 8
f 88/88/107 89/89/106 95/95/112 94/94/113
f 89/89/106 90/90/108 96/96/114 95/95/112
s 7
f 91/91/110 92/92/109 2/98/115 1/97/116
f 92/92/109 93/93/111 3/3/117 2/98/115
s 8
f 94/94/113 95/95/112 5/99/118 4/4/119
f 95/95/112 96/96/114 6/100/120 5/99/118
s 9
f 66/102/121 60/101/122 54/108/123 48/109/124
f 72/103/125 66/102/121 48/109/124 42/110/126
f 78/104/127 72/103/125 42/110/126 36/111/128
f 84/105/129 78/104/127 36/111/128 30/112/130
f 90/106/131 84/105/129 30/112/130 24/113/132
f 96/107/133 90/106/131 24/113/132 18/114/134
f 6/6/135 96/107/133 18/114/134 12/12/136
s 10
f 55/115/137 61/116/138 43/123/139 49/122/140
f 61/116/138 67/117/141 37/124/142 43/123/139
f 67/117/141 73/118/143 31/125/144 37/124/142
f 73/118/143 79/119/145 25/126/146 31/125/144
f 79/119/145 85/120/147 19/127/148 25/126/146
f 85/120/147 91/121/149 13/128/150 19/127/148
f 91/121/149 1/1/151 7/7/152 13/128/150
s off
f 15/15/153 9/9/154 3/3/155 93/93/156
f 21/21/157 15/15/158 93/93/159 87/87/160
f 27/27/161 21/21/162 87/87/163 81/81/164
f 33/33/165 27/27/166 81/81/167 75/75/168
f 39/39/169 33/33/170 75/75/171 69/69/172
f 45/45/173 39/39/174 69/69/175 63/63/176
f 40/40/177 46/46/178 64/64/179 70/70/180
f 34/34/181 40/40/182 70/70/183 76/76/184
f 28/28/185 34/34/186 76/76/187 82/82/188
f 22/22/189 28/28/190 82/82/191 88/88/192
f 16/16/193 22/22/194 88/88/195 94/94/196
f 10/10/197 16/16/198 94/94/199 4/4/200
f 52/52/201 58/58/202 64/64/203 46/46/204
f 51/51/205 45/45/206 63/63/207 57/57/208
