# This file uses centimeters as units for non-parametric coordinates.

mtllib Esc_Hole.mtl
g default
v -9.057304 -1.620852 9.057304
v -6.469503 -1.620852 9.057304
v -3.881702 -1.620852 9.057304
v -1.293901 -1.620852 9.057304
v 1.293901 -1.620852 9.057304
v 3.881702 -1.620852 9.057304
v 6.469503 -1.620852 9.057304
v 9.057304 -1.620852 9.057304
v -9.057304 1.857865 9.057304
v -6.469503 1.857865 9.057304
v -3.881702 1.857865 9.057304
v -1.293901 1.857865 9.057304
v 1.293901 1.857865 9.057304
v 3.881702 1.857865 9.057304
v 6.469503 1.857865 9.057304
v 9.057304 1.857865 9.057304
v -9.057304 1.857865 6.469503
v -8.493132 1.857865 8.493132
v -5.095878 1.857865 8.493132
v -1.698626 1.857865 8.493132
v 1.698626 1.857865 8.493132
v 5.095879 1.857865 8.493132
v 8.493132 1.857865 8.493132
v 9.057304 1.857865 6.469503
v -9.057304 1.857865 3.881702
v -8.493132 1.857865 5.095878
v -6.450272 1.469906 5.406022
v -2.549433 2.098681 7.627909
v 2.056887 1.314640 7.240318
v 6.309153 2.248515 5.571003
v 8.493132 1.857865 5.095878
v 9.057304 1.857865 3.881702
v -9.057304 1.857865 1.293901
v -8.493132 1.857865 1.698626
v -7.395908 2.143814 2.431904
v 7.238890 1.329202 2.665193
v 8.493132 1.857865 1.698626
v 9.057304 1.857865 1.293901
v -9.057304 1.857865 -1.293901
v -8.493132 1.857865 -1.698626
v -6.897140 1.302900 -1.885621
v 5.715820 2.228500 -2.073523
v 8.493132 1.857865 -1.698626
v 9.057304 1.857865 -1.293901
v -9.057304 1.857865 -3.881702
v -8.493132 1.857865 -5.095879
v -6.111560 2.193370 -5.545055
v -3.006296 1.443212 -7.469262
v 2.303623 2.017634 -7.529893
v 5.857735 1.444174 -6.727424
v 8.493132 1.857865 -5.095879
v 9.057304 1.857865 -3.881702
v -9.057304 1.857865 -6.469503
v -8.493132 1.857865 -8.493132
v -5.095878 1.857865 -8.493132
v -1.698626 1.857865 -8.493132
v 1.698626 1.857865 -8.493132
v 5.095879 1.857865 -8.493132
v 8.493132 1.857865 -8.493132
v 9.057304 1.857865 -6.469503
v -9.057304 1.857865 -9.057304
v -6.469503 1.857865 -9.057304
v -3.881702 1.857865 -9.057304
v -1.293901 1.857865 -9.057304
v 1.293901 1.857865 -9.057304
v 3.881702 1.857865 -9.057304
v 6.469503 1.857865 -9.057304
v 9.057304 1.857865 -9.057304
v -9.057304 -1.620852 -9.057304
v -6.469503 -1.620852 -9.057304
v -3.881702 -1.620852 -9.057304
v -1.293901 -1.620852 -9.057304
v 1.293901 -1.620852 -9.057304
v 3.881702 -1.620852 -9.057304
v 6.469503 -1.620852 -9.057304
v 9.057304 -1.620852 -9.057304
v -9.057304 -1.620852 -6.469503
v -8.567844 -1.620852 -8.567844
v -5.140706 -1.620852 -8.567844
v -1.713569 -1.620852 -8.567844
v 1.713569 -1.620852 -8.567844
v 5.140706 -1.620852 -8.567844
v 8.567844 -1.620852 -8.567844
v 9.057304 -1.620852 -6.469503
v -9.057304 -1.620852 -3.881702
v -8.567844 -1.620852 -5.140706
v -6.111560 -1.620852 -5.545055
v -3.006296 -1.620852 -7.469262
v 2.303623 -1.620852 -7.529893
v 5.857735 -1.620852 -6.727423
v 8.567844 -1.620852 -5.140706
v 9.057304 -1.620852 -3.881702
v -9.057304 -1.620852 -1.293901
v -8.567844 -1.620852 -1.713569
v -6.897140 -1.620852 -1.885621
v 5.715820 -1.620852 -2.073523
v 8.567844 -1.620852 -1.713569
v 9.057304 -1.620852 -1.293901
v -9.057304 -1.620852 1.293901
v -8.567844 -1.620852 1.713569
v -7.395908 -1.620852 2.431904
v 7.238890 -1.620852 2.665194
v 8.567844 -1.620852 1.713569
v 9.057304 -1.620852 1.293901
v -9.057304 -1.620852 3.881702
v -8.567844 -1.620852 5.140706
v -6.450272 -1.620852 5.406022
v -2.549433 -1.620852 7.627910
v 2.056887 -1.620852 7.240319
v 6.309152 -1.620852 5.571003
v 8.567844 -1.620852 5.140706
v 9.057304 -1.620852 3.881702
v -9.057304 -1.620852 6.469503
v -8.567844 -1.620852 8.567844
v -5.140706 -1.620852 8.567844
v -1.713569 -1.620852 8.567844
v 1.713569 -1.620852 8.567844
v 5.140706 -1.620852 8.567844
v 8.567844 -1.620852 8.567844
v 9.057304 -1.620852 6.469503
vt 0.375000 0.000000
vt 0.410714 0.000000
vt 0.446429 0.000000
vt 0.482143 0.000000
vt 0.517857 0.000000
vt 0.553571 0.000000
vt 0.589286 0.000000
vt 0.625000 0.000000
vt 0.375000 0.250000
vt 0.410714 0.250000
vt 0.446429 0.250000
vt 0.482143 0.250000
vt 0.517857 0.250000
vt 0.553571 0.250000
vt 0.589286 0.250000
vt 0.625000 0.250000
vt 0.375000 0.285714
vt 0.410714 0.285714
vt 0.446429 0.285714
vt 0.482143 0.285714
vt 0.517857 0.285714
vt 0.553571 0.285714
vt 0.589286 0.285714
vt 0.625000 0.285714
vt 0.375000 0.321429
vt 0.410714 0.321429
vt 0.446429 0.321429
vt 0.482143 0.321429
vt 0.517857 0.321429
vt 0.553571 0.321429
vt 0.589286 0.321429
vt 0.625000 0.321429
vt 0.375000 0.357143
vt 0.410714 0.357143
vt 0.446429 0.357143
vt 0.553571 0.357143
vt 0.589286 0.357143
vt 0.625000 0.357143
vt 0.375000 0.392857
vt 0.410714 0.392857
vt 0.446429 0.392857
vt 0.553571 0.392857
vt 0.589286 0.392857
vt 0.625000 0.392857
vt 0.375000 0.428571
vt 0.410714 0.428571
vt 0.446429 0.428571
vt 0.482143 0.428571
vt 0.517857 0.428571
vt 0.553571 0.428571
vt 0.589286 0.428571
vt 0.625000 0.428571
vt 0.375000 0.464286
vt 0.410714 0.464286
vt 0.446429 0.464286
vt 0.482143 0.464286
vt 0.517857 0.464286
vt 0.553571 0.464286
vt 0.589286 0.464286
vt 0.625000 0.464286
vt 0.375000 0.500000
vt 0.410714 0.500000
vt 0.446429 0.500000
vt 0.482143 0.500000
vt 0.517857 0.500000
vt 0.553571 0.500000
vt 0.589286 0.500000
vt 0.625000 0.500000
vt 0.375000 0.750000
vt 0.410714 0.750000
vt 0.446429 0.750000
vt 0.482143 0.750000
vt 0.517857 0.750000
vt 0.553571 0.750000
vt 0.589286 0.750000
vt 0.625000 0.750000
vt 0.375000 0.785714
vt 0.410714 0.785714
vt 0.446429 0.785714
vt 0.482143 0.785714
vt 0.517857 0.785714
vt 0.553571 0.785714
vt 0.589286 0.785714
vt 0.625000 0.785714
vt 0.375000 0.821429
vt 0.410714 0.821429
vt 0.446429 0.821429
vt 0.482143 0.821429
vt 0.517857 0.821429
vt 0.553571 0.821429
vt 0.589286 0.821429
vt 0.625000 0.821429
vt 0.375000 0.857143
vt 0.410714 0.857143
vt 0.446429 0.857143
vt 0.553571 0.857143
vt 0.589286 0.857143
vt 0.625000 0.857143
vt 0.375000 0.892857
vt 0.410714 0.892857
vt 0.446429 0.892857
vt 0.553571 0.892857
vt 0.589286 0.892857
vt 0.625000 0.892857
vt 0.375000 0.928571
vt 0.410714 0.928571
vt 0.446429 0.928571
vt 0.482143 0.928571
vt 0.517857 0.928571
vt 0.553571 0.928571
vt 0.589286 0.928571
vt 0.625000 0.928571
vt 0.375000 0.964286
vt 0.410714 0.964286
vt 0.446429 0.964286
vt 0.482143 0.964286
vt 0.517857 0.964286
vt 0.553571 0.964286
vt 0.589286 0.964286
vt 0.625000 0.964286
vt 0.375000 1.000000
vt 0.410714 1.000000
vt 0.446429 1.000000
vt 0.482143 1.000000
vt 0.517857 1.000000
vt 0.553571 1.000000
vt 0.589286 1.000000
vt 0.625000 1.000000
vt 0.875000 0.000000
vt 0.839286 0.000000
vt 0.803571 0.000000
vt 0.767857 0.000000
vt 0.732143 0.000000
vt 0.696429 0.000000
vt 0.660714 0.000000
vt 0.875000 0.250000
vt 0.839286 0.250000
vt 0.803571 0.250000
vt 0.767857 0.250000
vt 0.732143 0.250000
vt 0.696429 0.250000
vt 0.660714 0.250000
vt 0.125000 0.000000
vt 0.160714 0.000000
vt 0.196429 0.000000
vt 0.232143 0.000000
vt 0.267857 0.000000
vt 0.303571 0.000000
vt 0.339286 0.000000
vt 0.125000 0.250000
vt 0.160714 0.250000
vt 0.196429 0.250000
vt 0.232143 0.250000
vt 0.267857 0.250000
vt 0.303571 0.250000
vt 0.339286 0.250000
vn 0.000000 0.000000 1.000000
vn 0.000000 0.000000 1.000000
vn 0.000000 0.000000 1.000000
vn 0.000000 0.000000 1.000000
vn 0.000000 0.000000 1.000000
vn 0.000000 0.000000 1.000000
vn 0.000000 0.000000 1.000000
vn 0.000000 0.000000 1.000000
vn 0.000000 0.000000 1.000000
vn 0.000000 0.000000 1.000000
vn 0.000000 0.000000 1.000000
vn 0.000000 0.000000 1.000000
vn 0.000000 0.000000 1.000000
vn 0.000000 0.000000 1.000000
vn 0.000000 0.000000 1.000000
vn 0.000000 0.000000 1.000000
vn 0.000000 1.000000 0.000000
vn 0.000000 1.000000 0.000000
vn 0.058307 0.996595 -0.058307
vn 0.000000 1.000000 0.000000
vn 0.000000 1.000000 0.000000
vn -0.008528 0.999681 -0.023794
vn 0.000000 1.000000 0.000000
vn 0.011149 0.997707 -0.066754
vn 0.000000 1.000000 0.000000
vn -0.036927 0.995085 -0.091877
vn 0.000000 1.000000 0.000000
vn -0.038229 0.999168 -0.014209
vn 0.000000 1.000000 0.000000
vn 0.058919 0.996522 0.058919
vn 0.000000 1.000000 0.000000
vn 0.000000 1.000000 0.000000
vn 0.036156 0.999336 -0.004486
vn 0.000000 1.000000 0.000000
vn 0.035345 0.998942 -0.029412
vn -0.052115 0.998350 -0.024118
vn -0.071527 0.991237 -0.111057
vn -0.001127 0.999998 0.001492
vn -0.000423 0.999831 -0.018364
vn 0.000000 1.000000 0.000000
vn 0.057296 0.998148 -0.020459
vn 0.000000 1.000000 0.000000
vn 0.043223 0.998657 0.028584
vn -0.037937 0.998880 0.028269
vn -0.060549 0.998125 -0.008958
vn 0.000000 1.000000 0.000000
vn 0.075145 0.996927 0.022119
vn 0.000000 1.000000 0.000000
vn 0.093290 0.994737 0.042380
vn 0.003699 0.999991 0.002051
vn 0.010520 0.999667 -0.023543
vn 0.000000 1.000000 0.000000
vn 0.003371 0.999649 0.026288
vn 0.000000 1.000000 0.000000
vn 0.000063 0.999961 0.008818
vn -0.004762 0.999274 -0.037785
vn -0.026639 0.999491 0.017553
vn 0.000000 1.000000 0.000000
vn -0.048999 0.997596 -0.048999
vn 0.000000 1.000000 0.000000
vn 0.026981 0.999566 0.011849
vn 0.089755 0.990460 0.104564
vn 0.012726 0.996938 0.077147
vn 0.028701 0.997025 0.071540
vn -0.009624 0.998002 0.062449
vn -0.012478 0.998200 0.058659
vn -0.069749 0.995123 0.069749
vn 0.000000 1.000000 0.000000
vn 0.000000 1.000000 0.000000
vn 0.000000 1.000000 0.000000
vn 0.000000 1.000000 0.000000
vn 0.000000 1.000000 0.000000
vn 0.000000 1.000000 0.000000
vn 0.000000 1.000000 0.000000
vn 0.000000 1.000000 0.000000
vn 0.000000 1.000000 0.000000
vn 0.000000 0.000000 -1.000000
vn 0.000000 0.000000 -1.000000
vn 0.000000 0.000000 -1.000000
vn 0.000000 0.000000 -1.000000
vn 0.000000 0.000000 -1.000000
vn 0.000000 0.000000 -1.000000
vn 0.000000 0.000000 -1.000000
vn 0.000000 0.000000 -1.000000
vn 0.000000 0.000000 -1.000000
vn 0.000000 0.000000 -1.000000
vn 0.000000 0.000000 -1.000000
vn 0.000000 0.000000 -1.000000
vn 0.000000 0.000000 -1.000000
vn 0.000000 0.000000 -1.000000
vn 0.000000 0.000000 -1.000000
vn 0.000000 0.000000 -1.000000
vn 0.000000 -1.000000 0.000000
vn 0.000000 -1.000000 0.000000
vn 0.000000 -1.000000 0.000000
vn 0.000000 -1.000000 0.000000
vn 0.000000 -1.000000 -0.000000
vn 0.000000 -1.000000 0.000000
vn 0.000000 -1.000000 0.000000
vn 0.000000 -1.000000 -0.000000
vn 0.000000 -1.000000 0.000000
vn 0.000000 -1.000000 -0.000000
vn 0.000000 -1.000000 0.000000
vn 0.000000 -1.000000 -0.000000
vn 0.000000 -1.000000 0.000000
vn 0.000000 -1.000000 0.000000
vn 0.000000 -1.000000 0.000000
vn 0.000000 -1.000000 0.000000
vn 0.000000 -1.000000 0.000000
vn 0.000000 -1.000000 0.000000
vn 0.000000 -1.000000 0.000000
vn 0.000000 -1.000000 0.000000
vn 0.000000 -1.000000 -0.000000
vn 0.000000 -1.000000 -0.000000
vn 0.000000 -1.000000 0.000000
vn 0.000000 -1.000000 0.000000
vn 0.000000 -1.000000 0.000000
vn 0.000000 -1.000000 0.000000
vn 0.000000 -1.000000 0.000000
vn 0.000000 -1.000000 0.000000
vn 0.000000 -1.000000 0.000000
vn 0.000000 -1.000000 0.000000
vn 0.000000 -1.000000 0.000000
vn 0.000000 -1.000000 0.000000
vn 0.000000 -1.000000 0.000000
vn 0.000000 -1.000000 0.000000
vn 0.000000 -1.000000 0.000000
vn 0.000000 -1.000000 0.000000
vn 0.000000 -1.000000 0.000000
vn 0.000000 -1.000000 0.000000
vn 0.000000 -1.000000 0.000000
vn 0.000000 -1.000000 0.000000
vn 0.000000 -1.000000 0.000000
vn 0.000000 -1.000000 0.000000
vn 0.000000 -1.000000 -0.000000
vn 0.000000 -1.000000 0.000000
vn 0.000000 -1.000000 -0.000000
vn 0.000000 -1.000000 -0.000000
vn 0.000000 -1.000000 -0.000000
vn 0.000000 -1.000000 -0.000000
vn 0.000000 -1.000000 -0.000000
vn 0.000000 -1.000000 -0.000000
vn 0.000000 -1.000000 0.000000
vn 0.000000 -1.000000 0.000000
vn 0.000000 -1.000000 -0.000000
vn 0.000000 -1.000000 0.000000
vn 0.000000 -1.000000 -0.000000
vn 0.000000 -1.000000 0.000000
vn 0.000000 -1.000000 0.000000
vn 0.000000 -1.000000 -0.000000
vn 0.000000 -1.000000 0.000000
vn 0.000000 -1.000000 0.000000
vn 1.000000 0.000000 0.000000
vn 1.000000 0.000000 0.000000
vn 1.000000 0.000000 0.000000
vn 1.000000 0.000000 0.000000
vn 1.000000 0.000000 0.000000
vn 1.000000 0.000000 0.000000
vn 1.000000 0.000000 0.000000
vn 1.000000 0.000000 0.000000
vn 1.000000 0.000000 0.000000
vn 1.000000 0.000000 0.000000
vn 1.000000 0.000000 0.000000
vn 1.000000 0.000000 0.000000
vn 1.000000 0.000000 0.000000
vn 1.000000 0.000000 0.000000
vn 1.000000 0.000000 0.000000
vn 1.000000 0.000000 0.000000
vn -1.000000 0.000000 0.000000
vn -1.000000 0.000000 0.000000
vn -1.000000 0.000000 0.000000
vn -1.000000 0.000000 0.000000
vn -1.000000 0.000000 0.000000
vn -1.000000 0.000000 0.000000
vn -1.000000 0.000000 0.000000
vn -1.000000 0.000000 0.000000
vn -1.000000 0.000000 0.000000
vn -1.000000 0.000000 0.000000
vn -1.000000 0.000000 0.000000
vn -1.000000 0.000000 0.000000
vn -1.000000 0.000000 0.000000
vn -1.000000 0.000000 0.000000
vn -1.000000 0.000000 0.000000
vn -1.000000 0.000000 0.000000
vn -0.999535 -0.000000 -0.030480
vn -0.999535 -0.000000 -0.030480
vn -0.999535 -0.000000 -0.030480
vn -0.999535 -0.000000 -0.030480
vn -0.952034 0.000000 0.305993
vn -0.952034 0.000000 0.305993
vn -0.952034 0.000000 0.305993
vn -0.952034 0.000000 0.305993
vn -0.952436 0.000000 -0.304740
vn -0.952436 0.000000 -0.304740
vn -0.952436 0.000000 -0.304740
vn -0.952436 0.000000 -0.304740
vn -0.365421 -0.000000 -0.930842
vn -0.365421 -0.000000 -0.930842
vn -0.365421 -0.000000 -0.930842
vn -0.365421 -0.000000 -0.930842
vn -0.083847 -0.000000 -0.996479
vn -0.083847 -0.000000 -0.996479
vn -0.083847 -0.000000 -0.996479
vn -0.083847 -0.000000 -0.996479
vn 0.494936 -0.000000 -0.868930
vn 0.494936 -0.000000 -0.868930
vn 0.494936 -0.000000 -0.868930
vn 0.494936 -0.000000 -0.868930
vn 0.952988 -0.000000 -0.303007
vn 0.952988 -0.000000 -0.303007
vn 0.952988 -0.000000 -0.303007
vn 0.952988 -0.000000 -0.303007
vn 0.993393 0.000000 0.114758
vn 0.993393 0.000000 0.114758
vn 0.993393 0.000000 0.114758
vn 0.993393 0.000000 0.114758
vn 0.977725 0.000000 0.209891
vn 0.977725 0.000000 0.209891
vn 0.977725 0.000000 0.209891
vn 0.977725 0.000000 0.209891
vn 0.526731 0.000000 0.850032
vn 0.526731 0.000000 0.850032
vn 0.526731 0.000000 0.850032
vn 0.526731 0.000000 0.850032
vn 0.011418 0.000000 0.999935
vn 0.011418 0.000000 0.999935
vn 0.011418 0.000000 0.999935
vn 0.011418 0.000000 0.999935
vn -0.220242 0.000000 0.975445
vn -0.220242 0.000000 0.975445
vn -0.220242 0.000000 0.975445
vn -0.220242 0.000000 0.975445
s 1
g Esc_mid:pCube2
usemtl initialShadingGroup
f 1/1/1 2/2/2 10/10/3 9/9/4
f 2/2/2 3/3/5 11/11/6 10/10/3
f 3/3/5 4/4/7 12/12/8 11/11/6
f 4/4/7 5/5/9 13/13/10 12/12/8
f 5/5/9 6/6/11 14/14/12 13/13/10
f 6/6/11 7/7/13 15/15/14 14/14/12
f 7/7/13 8/8/15 16/16/16 15/15/14
s 2
f 9/9/17 10/10/18 18/18/19 17/17/20
f 10/10/18 11/11/21 19/19/22 18/18/19
f 11/11/21 12/12/23 20/20/24 19/19/22
f 12/12/23 13/13/25 21/21/26 20/20/24
f 13/13/25 14/14/27 22/22/28 21/21/26
f 14/14/27 15/15/29 23/23/30 22/22/28
f 15/15/29 16/16/31 24/24/32 23/23/30
f 17/17/20 18/18/19 26/26/33 25/25/34
f 18/18/19 19/19/22 27/27/35 26/26/33
f 19/19/22 20/20/24 28/28/36 27/27/35
f 20/20/24 21/21/26 29/29/37 28/28/36
f 21/21/26 22/22/28 30/30/38 29/29/37
f 22/22/28 23/23/30 31/31/39 30/30/38
f 23/23/30 24/24/32 32/32/40 31/31/39
f 25/25/34 26/26/33 34/34/41 33/33/42
f 26/26/33 27/27/35 35/35/43 34/34/41
f 30/30/38 31/31/39 37/37/44 36/36/45
f 31/31/39 32/32/40 38/38/46 37/37/44
f 33/33/42 34/34/41 40/40/47 39/39/48
f 34/34/41 35/35/43 41/41/49 40/40/47
f 36/36/45 37/37/44 43/43/50 42/42/51
f 37/37/44 38/38/46 44/44/52 43/43/50
f 39/39/48 40/40/47 46/46/53 45/45/54
f 40/40/47 41/41/49 47/47/55 46/46/53
f 42/42/51 43/43/50 51/51/56 50/50/57
f 43/43/50 44/44/52 52/52/58 51/51/56
f 45/45/54 46/46/53 54/54/59 53/53/60
f 46/46/53 47/47/55 55/55/61 54/54/59
f 47/47/55 48/48/62 56/56/63 55/55/61
f 48/48/62 49/49/64 57/57/65 56/56/63
f 49/49/64 50/50/57 58/58/66 57/57/65
f 50/50/57 51/51/56 59/59/67 58/58/66
f 51/51/56 52/52/58 60/60/68 59/59/67
f 53/53/60 54/54/59 62/62/69 61/61/70
f 54/54/59 55/55/61 63/63/71 62/62/69
f 55/55/61 56/56/63 64/64/72 63/63/71
f 56/56/63 57/57/65 65/65/73 64/64/72
f 57/57/65 58/58/66 66/66/74 65/65/73
f 58/58/66 59/59/67 67/67/75 66/66/74
f 59/59/67 60/60/68 68/68/76 67/67/75
s 3
f 61/61/77 62/62/78 70/70/79 69/69/80
f 62/62/78 63/63/81 71/71/82 70/70/79
f 63/63/81 64/64/83 72/72/84 71/71/82
f 64/64/83 65/65/85 73/73/86 72/72/84
f 65/65/85 66/66/87 74/74/88 73/73/86
f 66/66/87 67/67/89 75/75/90 74/74/88
f 67/67/89 68/68/91 76/76/92 75/75/90
s 4
f 69/69/93 70/70/94 78/78/95 77/77/96
f 70/70/94 71/71/97 79/79/98 78/78/95
f 71/71/97 72/72/99 80/80/100 79/79/98
f 72/72/99 73/73/101 81/81/102 80/80/100
f 73/73/101 74/74/103 82/82/104 81/81/102
f 74/74/103 75/75/105 83/83/106 82/82/104
f 75/75/105 76/76/107 84/84/108 83/83/106
f 77/77/96 78/78/95 86/86/109 85/85/110
f 78/78/95 79/79/98 87/87/111 86/86/109
f 79/79/98 80/80/100 88/88/112 87/87/111
f 80/80/100 81/81/102 89/89/113 88/88/112
f 81/81/102 82/82/104 90/90/114 89/89/113
f 82/82/104 83/83/106 91/91/115 90/90/114
f 83/83/106 84/84/108 92/92/116 91/91/115
f 85/85/110 86/86/109 94/94/117 93/93/118
f 86/86/109 87/87/111 95/95/119 94/94/117
f 90/90/114 91/91/115 97/97/120 96/96/121
f 91/91/115 92/92/116 98/98/122 97/97/120
f 93/93/118 94/94/117 100/100/123 99/99/124
f 94/94/117 95/95/119 101/101/125 100/100/123
f 96/96/121 97/97/120 103/103/126 102/102/127
f 97/97/120 98/98/122 104/104/128 103/103/126
f 99/99/124 100/100/123 106/106/129 105/105/130
f 100/100/123 101/101/125 107/107/131 106/106/129
f 102/102/127 103/103/126 111/111/132 110/110/133
f 103/103/126 104/104/128 112/112/134 111/111/132
f 105/105/130 106/106/129 114/114/135 113/113/136
f 106/106/129 107/107/131 115/115/137 114/114/135
f 107/107/131 108/108/138 116/116/139 115/115/137
f 108/108/138 109/109/140 117/117/141 116/116/139
f 109/109/140 110/110/133 118/118/142 117/117/141
f 110/110/133 111/111/132 119/119/143 118/118/142
f 111/111/132 112/112/134 120/120/144 119/119/143
f 113/113/136 114/114/135 2/122/145 1/121/146
f 114/114/135 115/115/137 3/123/147 2/122/145
f 115/115/137 116/116/139 4/124/148 3/123/147
f 116/116/139 117/117/141 5/125/149 4/124/148
f 117/117/141 118/118/142 6/126/150 5/125/149
f 118/118/142 119/119/143 7/127/151 6/126/150
f 119/119/143 120/120/144 8/128/152 7/127/151
s 5
f 84/130/153 76/129/154 68/136/155 60/137/156
f 92/131/157 84/130/153 60/137/156 52/138/158
f 98/132/159 92/131/157 52/138/158 44/139/160
f 104/133/161 98/132/159 44/139/160 38/140/162
f 112/134/163 104/133/161 38/140/162 32/141/164
f 120/135/165 112/134/163 32/141/164 24/142/166
f 8/8/167 120/135/165 24/142/166 16/16/168
s 6
f 69/143/169 77/144/170 53/151/171 61/150/172
f 77/144/170 85/145/173 45/152/174 53/151/171
f 85/145/173 93/146/175 39/153/176 45/152/174
f 93/146/175 99/147/177 33/154/178 39/153/176
f 99/147/177 105/148/179 25/155/180 33/154/178
f 105/148/179 113/149/181 17/156/182 25/155/180
f 113/149/181 1/1/183 9/9/184 17/156/182
s off
f 42/42/185 50/50/186 90/90/187 96/96/188
f 36/36/189 42/42/190 96/96/191 102/102/192
f 30/30/193 36/36/194 102/102/195 110/110/196
f 29/29/197 30/30/198 110/110/199 109/109/200
f 28/28/201 29/29/202 109/109/203 108/108/204
f 27/27/205 28/28/206 108/108/207 107/107/208
f 35/35/209 27/27/210 107/107/211 101/101/212
f 41/41/213 35/35/214 101/101/215 95/95/216
f 47/47/217 41/41/218 95/95/219 87/87/220
f 48/48/221 47/47/222 87/87/223 88/88/224
f 49/49/225 48/48/226 88/88/227 89/89/228
f 50/50/229 49/49/230 89/89/231 90/90/232
