# This file uses centimeters as units for non-parametric coordinates.

mtllib Gemax5.mtl
g default
v 0.000000 0.000000 0.875057
v 0.875057 0.000000 -0.000000
v 0.000000 0.920360 -0.000000
v -0.875057 0.000000 -0.000000
v 0.000000 -0.920360 -0.000000
v 0.000000 0.000000 -0.875057
v 0.587263 -0.000000 -0.587263
v -0.587263 -0.000000 0.587263
v -0.587263 -0.000000 -0.587263
v 0.587263 -0.000000 0.587263
vt 0.500000 0.500000
vt 0.750000 0.500000
vt 0.500000 1.000000
vt 0.250000 0.500000
vt 0.500000 1.000000
vt 1.000000 0.500000
vt 1.250000 0.500000
vt 0.875000 0.500000
vt 0.375000 0.500000
vt 1.125000 0.500000
vt 0.625000 0.500000
vn 0.524966 0.669941 0.524966
vn 0.524966 0.669941 0.524966
vn 0.334675 0.649311 0.682926
vn -0.524966 0.669941 0.524966
vn -0.682926 0.649311 0.334674
vn -0.524966 0.669941 0.524966
vn -0.682926 -0.649311 0.334674
vn -0.524966 -0.669941 0.524966
vn -0.524966 -0.669941 0.524966
vn 0.334675 -0.649311 0.682926
vn 0.524966 -0.669941 0.524966
vn 0.524966 -0.669941 0.524966
vn 0.334674 0.649311 -0.682926
vn 0.524966 0.669941 -0.524966
vn 0.524966 0.669941 -0.524966
vn -0.524966 0.669941 -0.524966
vn -0.524966 0.669941 -0.524966
vn -0.682926 0.649311 -0.334675
vn -0.524966 -0.669941 -0.524966
vn -0.524966 -0.669941 -0.524966
vn -0.682926 -0.649311 -0.334675
vn 0.334674 -0.649311 -0.682926
vn 0.524966 -0.669941 -0.524966
vn 0.524966 -0.669941 -0.524966
vn 0.682926 0.649311 -0.334675
vn 0.682926 -0.649311 -0.334675
vn -0.334674 -0.649311 0.682926
vn -0.334674 0.649311 0.682926
vn -0.334675 0.649311 -0.682926
vn -0.334675 -0.649311 -0.682926
vn 0.682926 -0.649311 0.334675
vn 0.682926 0.649311 0.334675
s 1
g pPlatonic1
usemtl anisotropic12SG
f 10/11/1 3/3/2 1/1/3
s 2
f 3/3/4 4/4/5 8/9/6
s 3
usemtl anisotropic10SG
f 4/4/7 5/5/8 8/9/9
s 4
f 1/1/10 5/5/11 10/11/12
s 5
f 6/6/13 3/3/14 7/8/15
s 6
f 3/3/16 9/10/17 4/7/18
s 7
usemtl anisotropic11SG
f 9/10/19 5/5/20 4/7/21
s 8
f 6/6/22 7/8/23 5/5/24
s 5
usemtl anisotropic12SG
f 7/8/15 3/3/14 2/2/25
s 8
usemtl anisotropic10SG
f 5/5/24 7/8/23 2/2/26
s 3
usemtl anisotropic11SG
f 8/9/9 5/5/8 1/1/27
s 2
usemtl anisotropic10SG
f 3/3/4 8/9/6 1/1/28
s 6
usemtl anisotropic12SG
f 6/6/29 9/10/17 3/3/16
s 7
usemtl anisotropic10SG
f 6/6/30 5/5/20 9/10/19
s 4
usemtl anisotropic11SG
f 10/11/12 5/5/11 2/2/31
s 1
usemtl anisotropic10SG
f 2/2/32 3/3/2 10/11/1
