# This file uses centimeters as units for non-parametric coordinates.

mtllib SUELO DECOOOOOOO.mtl
g default
v -32.053298 -1.177077 22.068221
v 32.053298 -1.177077 22.068221
v -32.053298 2.459024 22.068221
v 32.053298 2.459024 22.068221
v -32.053298 2.459024 -22.068221
v 32.053298 2.459024 -22.068221
v -32.053298 -1.177077 -22.068221
v 32.053298 -1.177077 -22.068221
v -30.489452 -1.177077 22.068221
v -30.489452 -1.177077 -22.068221
v -30.489452 3.268350 -22.068221
v -30.489452 3.268350 22.068221
v -28.479908 -1.177077 22.068221
v -28.479908 3.995843 22.068221
v -28.479908 3.995843 -22.068221
v -28.479908 -1.177077 -22.068221
v -25.784436 -1.177077 22.068221
v -25.784436 3.868317 22.068221
v -25.784436 3.868317 -22.068221
v -25.784436 -1.177077 -22.068221
v 30.132509 -1.177077 22.068221
v 30.132509 3.268350 22.068221
v 30.132509 3.268350 -22.068221
v 30.132509 -1.177077 -22.068221
v 27.867703 -1.177077 22.068221
v 27.867703 -1.177077 -22.068221
v 27.867703 3.995843 -22.068221
v 27.867703 3.995843 22.068221
v 25.000577 -1.177077 22.068221
v 25.000577 -1.177077 -22.068221
v 25.000577 3.868317 -22.068221
v 25.000577 3.868317 22.068221
v -1.207740 -1.177077 22.068221
v -1.207740 -1.177077 -22.068221
v -1.207740 2.737537 -22.068221
v -1.207740 3.868317 22.068221
v -9.846621 -1.177077 22.068221
v -9.846621 -1.177077 -22.068221
v -9.846621 3.868317 -22.068221
v -9.846621 2.955177 22.068221
v -18.466460 -1.177077 22.068221
v -18.466460 -1.177077 -22.068221
v -18.466460 2.747162 -22.068221
v -18.466460 3.868317 22.068221
v 7.432120 -1.177077 22.068221
v 7.432120 3.081524 22.068221
v 7.432120 3.868317 -22.068221
v 7.432120 -1.177077 -22.068221
v 16.903256 -1.177077 22.068221
v 16.903256 3.868317 22.068221
v 16.903256 2.845219 -22.068221
v 16.903256 -1.177077 -22.068221
v -32.053298 2.459024 4.221342
v -30.489454 3.268350 4.221341
v -28.479909 3.995843 4.221342
v -25.784436 3.868317 4.221342
v -18.466460 3.014263 4.221341
v -9.846621 3.014263 4.221341
v -1.207740 3.868317 4.221341
v 7.432120 2.853898 4.221342
v 16.903256 2.853898 4.221342
v 25.000577 3.868317 4.221341
v 27.867701 3.995843 4.221341
v 30.132511 3.268350 4.221342
v 32.053298 2.459024 4.221342
v 32.053298 -1.177077 4.221341
v 30.132509 -1.177077 4.221341
v 27.867703 -1.177077 4.221342
v 25.000577 -1.177077 4.221342
v 16.903256 -1.177077 4.221341
v 7.432120 -1.177077 4.221341
v -1.207740 -1.177077 4.221342
v -9.846621 -1.177077 4.221342
v -18.466460 -1.177077 4.221342
v -25.784436 -1.177077 4.221341
v -28.479908 -1.177077 4.221341
v -30.489454 -1.177077 4.221342
v -32.053298 -1.177077 4.221341
v -32.053298 -1.177077 -4.331862
v -30.489454 -1.177077 -4.331862
v -28.479908 -1.177077 -4.331862
v -25.784436 -1.177077 -4.331862
v -18.466460 -1.177077 -4.331862
v -9.846621 -1.177077 -4.331862
v -1.207740 -1.177077 -4.331862
v 7.432120 -1.177077 -4.331862
v 16.903256 -1.177077 -4.331862
v 25.000577 -1.177077 -4.331862
v 27.867703 -1.177077 -4.331862
v 30.132509 -1.177077 -4.331862
v 32.053298 -1.177077 -4.331862
v 32.053298 2.459024 -4.331862
v 30.132511 3.268350 -4.331862
v 27.867703 3.995843 -4.331862
v 25.000577 2.982580 -4.331862
v 16.903256 2.982580 -4.331862
v 7.432120 3.868317 -4.331862
v -1.207740 2.591589 -4.331862
v -9.846621 2.591589 -4.331862
v -18.466460 3.868317 -4.331862
v -25.784436 3.868317 -4.331862
v -28.479908 3.995843 -4.331862
v -30.489454 3.268350 -4.331862
v -32.053298 2.459024 -4.331862
v -32.053298 -1.177077 -13.203570
v -30.489454 -1.177077 -13.203571
v -28.479906 -1.177077 -13.203570
v -25.784436 -1.177077 -13.203570
v -18.466460 -1.177077 -13.203571
v -9.846621 -1.177077 -13.203571
v -1.207740 -1.177077 -13.203571
v 7.432120 -1.177077 -13.203570
v 16.903254 -1.177077 -13.203570
v 25.000577 -1.177077 -13.203571
v 27.867703 -1.177077 -13.203571
v 30.132509 -1.177077 -13.203570
v 32.053298 -1.177077 -13.203570
v 32.053298 2.459024 -13.203571
v 30.132509 3.268350 -13.203571
v 27.867701 3.995843 -13.203570
v 25.000577 2.982580 -13.203570
v 16.903256 2.982580 -13.203571
v 7.432120 3.868317 -13.203571
v -1.207740 2.591589 -13.203570
v -9.846621 2.591589 -13.203570
v -18.466458 3.868317 -13.203570
v -25.784436 3.868317 -13.203571
v -28.479908 3.995843 -13.203571
v -30.489452 3.268350 -13.203570
v -32.053298 2.459024 -13.203571
v -32.053298 2.459024 13.462349
v -30.489454 3.268350 13.462349
v -28.479909 3.995843 13.462349
v -25.784436 3.868317 13.462349
v -18.466460 3.014263 13.462349
v -9.846621 3.014263 13.462349
v -1.207740 3.868317 13.462349
v 7.432120 2.853898 13.462349
v 16.903256 2.853898 13.462349
v 25.000577 3.868317 13.462349
v 27.867701 3.995843 13.462349
v 30.132509 3.268350 13.462349
v 32.053298 2.459024 13.462349
v 32.053298 -1.177077 13.462349
v 30.132509 -1.177077 13.462349
v 27.867703 -1.177077 13.462349
v 25.000577 -1.177077 13.462349
v 16.903256 -1.177077 13.462349
v 7.432120 -1.177077 13.462349
v -1.207740 -1.177077 13.462349
v -9.846621 -1.177077 13.462349
v -18.466460 -1.177077 13.462349
v -25.784436 -1.177077 13.462349
v -28.479908 -1.177077 13.462349
v -30.489454 -1.177077 13.462349
v -32.053298 -1.177077 13.462349
vt 0.375000 0.000000
vt 0.625000 0.000000
vt 0.375000 0.250000
vt 0.625000 0.250000
vt 0.375000 0.500000
vt 0.625000 0.500000
vt 0.375000 0.750000
vt 0.625000 0.750000
vt 0.375000 1.000000
vt 0.625000 1.000000
vt 0.875000 0.000000
vt 0.875000 0.250000
vt 0.125000 0.000000
vt 0.125000 0.250000
vt 0.381099 0.000000
vt 0.381099 1.000000
vt 0.381099 0.750000
vt 0.381099 0.500000
vt 0.381099 0.250000
vt 0.388935 0.000000
vt 0.388935 1.000000
vt 0.388935 0.250000
vt 0.388935 0.500000
vt 0.388935 0.750000
vt 0.399447 0.000000
vt 0.399447 1.000000
vt 0.399447 0.250000
vt 0.399447 0.500000
vt 0.399447 0.750000
vt 0.617509 0.000000
vt 0.617509 1.000000
vt 0.617509 0.250000
vt 0.617509 0.500000
vt 0.617509 0.750000
vt 0.608677 0.000000
vt 0.608677 1.000000
vt 0.608677 0.750000
vt 0.608677 0.500000
vt 0.608677 0.250000
vt 0.597496 0.000000
vt 0.597496 1.000000
vt 0.597496 0.750000
vt 0.597496 0.500000
vt 0.597496 0.250000
vt 0.495290 0.000000
vt 0.495290 1.000000
vt 0.495290 0.750000
vt 0.495290 0.500000
vt 0.495290 0.250000
vt 0.461601 0.000000
vt 0.461601 1.000000
vt 0.461601 0.750000
vt 0.461601 0.500000
vt 0.461601 0.250000
vt 0.427985 0.000000
vt 0.427985 1.000000
vt 0.427985 0.750000
vt 0.427985 0.500000
vt 0.427985 0.250000
vt 0.528983 0.000000
vt 0.528983 1.000000
vt 0.528983 0.250000
vt 0.528983 0.500000
vt 0.528983 0.750000
vt 0.565919 0.000000
vt 0.565919 1.000000
vt 0.565919 0.250000
vt 0.565919 0.500000
vt 0.565919 0.750000
vt 0.273911 0.250000
vt 0.375000 0.351089
vt 0.381099 0.351089
vt 0.388935 0.351089
vt 0.399447 0.351089
vt 0.427985 0.351089
vt 0.461601 0.351089
vt 0.495290 0.351089
vt 0.528983 0.351089
vt 0.565919 0.351089
vt 0.597496 0.351089
vt 0.608677 0.351089
vt 0.617509 0.351089
vt 0.625000 0.351089
vt 0.726089 0.250000
vt 0.625000 0.898911
vt 0.726089 0.000000
vt 0.617509 0.898911
vt 0.608677 0.898911
vt 0.597496 0.898911
vt 0.565919 0.898911
vt 0.528983 0.898911
vt 0.495290 0.898911
vt 0.461601 0.898911
vt 0.427985 0.898911
vt 0.399447 0.898911
vt 0.388935 0.898911
vt 0.381099 0.898911
vt 0.273911 0.000000
vt 0.375000 0.898911
vt 0.225463 0.000000
vt 0.375000 0.850463
vt 0.381099 0.850463
vt 0.388935 0.850463
vt 0.399447 0.850463
vt 0.427985 0.850463
vt 0.461601 0.850463
vt 0.495290 0.850463
vt 0.528983 0.850463
vt 0.565919 0.850463
vt 0.597496 0.850463
vt 0.608677 0.850463
vt 0.617509 0.850463
vt 0.625000 0.850463
vt 0.774537 0.000000
vt 0.625000 0.399537
vt 0.774537 0.250000
vt 0.617509 0.399537
vt 0.608677 0.399537
vt 0.597496 0.399537
vt 0.565919 0.399537
vt 0.528983 0.399537
vt 0.495290 0.399537
vt 0.461601 0.399537
vt 0.427985 0.399537
vt 0.399447 0.399537
vt 0.388935 0.399537
vt 0.381099 0.399537
vt 0.225463 0.250000
vt 0.375000 0.399537
vt 0.175212 0.000000
vt 0.375000 0.800212
vt 0.381099 0.800212
vt 0.388935 0.800212
vt 0.399447 0.800212
vt 0.427985 0.800212
vt 0.461601 0.800212
vt 0.495290 0.800212
vt 0.528983 0.800212
vt 0.565918 0.800212
vt 0.597496 0.800212
vt 0.608677 0.800212
vt 0.617509 0.800212
vt 0.625000 0.800212
vt 0.824788 0.000000
vt 0.625000 0.449788
vt 0.824788 0.250000
vt 0.617509 0.449788
vt 0.608677 0.449788
vt 0.597496 0.449788
vt 0.565919 0.449788
vt 0.528983 0.449788
vt 0.495290 0.449788
vt 0.461601 0.449788
vt 0.427985 0.449788
vt 0.399447 0.449788
vt 0.388935 0.449788
vt 0.381099 0.449788
vt 0.175212 0.250000
vt 0.375000 0.449788
vt 0.326254 0.250000
vt 0.375000 0.298746
vt 0.381099 0.298746
vt 0.388935 0.298746
vt 0.399447 0.298746
vt 0.427985 0.298746
vt 0.461601 0.298746
vt 0.495290 0.298746
vt 0.528983 0.298746
vt 0.565919 0.298746
vt 0.597496 0.298746
vt 0.608677 0.298746
vt 0.617509 0.298746
vt 0.625000 0.298746
vt 0.673746 0.250000
vt 0.625000 0.951254
vt 0.673746 0.000000
vt 0.617509 0.951254
vt 0.608677 0.951254
vt 0.597496 0.951254
vt 0.565919 0.951254
vt 0.528983 0.951254
vt 0.495290 0.951254
vt 0.461601 0.951254
vt 0.427985 0.951254
vt 0.399447 0.951254
vt 0.388935 0.951254
vt 0.381099 0.951254
vt 0.326254 0.000000
vt 0.375000 0.951254
vn 0.000000 0.000000 1.000000
vn 0.000001 0.000000 1.000000
vn -0.000000 0.000000 1.000000
vn -0.000000 0.000000 1.000000
vn -0.126492 0.991968 -0.000000
vn -0.395084 0.918645 -0.000000
vn -0.395085 0.918645 -0.000000
vn -0.126492 0.991968 -0.000000
vn 0.000000 0.000000 -1.000000
vn 0.000000 0.000000 -1.000000
vn -0.000000 0.000000 -1.000000
vn -0.000000 0.000000 -1.000000
vn 0.000000 -1.000000 0.000000
vn 0.000000 -1.000000 0.000000
vn 0.000000 -1.000000 0.000000
vn 0.000000 -1.000000 0.000000
vn 1.000000 0.000000 0.000000
vn 1.000000 0.000000 0.000000
vn 1.000000 0.000000 0.000000
vn 1.000000 0.000000 0.000000
vn -1.000000 0.000000 0.000000
vn -1.000000 0.000000 0.000000
vn -1.000000 0.000000 0.000000
vn -1.000000 0.000000 0.000000
vn 0.000000 -1.000000 0.000000
vn 0.000000 -1.000000 0.000000
vn 0.000001 0.000000 -1.000000
vn 0.000001 0.000000 -1.000000
vn -0.459621 0.888115 0.000000
vn -0.459621 0.888115 -0.000000
vn 0.000001 0.000000 1.000000
vn 0.000001 0.000000 1.000000
vn -0.000000 0.000000 1.000000
vn -0.000000 0.000000 1.000000
vn 0.033644 0.999274 0.017897
vn 0.077284 0.996856 0.017483
vn -0.000000 0.000000 -1.000000
vn -0.000000 0.000000 -1.000000
vn 0.000000 -1.000000 0.000000
vn 0.000000 -1.000000 0.000000
vn 0.000000 0.000000 1.000000
vn 0.000000 0.000000 1.000000
vn -0.000000 0.000000 1.000000
vn -0.000000 0.000000 1.000000
vn 0.344670 0.938724 -0.000000
vn -0.013323 0.999810 -0.014197
vn 0.075207 0.997072 -0.013864
vn 0.344670 0.938724 0.000000
vn 0.000000 0.000000 -1.000000
vn 0.000000 0.000000 -1.000000
vn -0.000000 0.000000 -1.000000
vn -0.000000 0.000000 -1.000000
vn 0.000000 -1.000000 0.000000
vn 0.000000 -1.000000 0.000000
vn 0.000000 -1.000000 0.000000
vn 0.000000 -1.000000 0.000000
vn -0.000001 0.000000 1.000000
vn -0.000001 0.000000 1.000000
vn 0.388291 0.921537 -0.000000
vn 0.388291 0.921537 0.000000
vn -0.000001 0.000000 -1.000000
vn -0.000001 0.000000 -1.000000
vn 0.000000 -1.000000 0.000000
vn 0.000000 -1.000000 0.000000
vn 0.000000 -1.000000 0.000000
vn 0.000000 -1.000000 0.000000
vn 0.000000 0.000000 -1.000000
vn 0.000000 0.000000 -1.000000
vn -0.094553 0.995266 -0.022500
vn -0.100934 0.994649 -0.022046
vn 0.000000 0.000000 1.000000
vn 0.000000 0.000000 1.000000
vn 0.000000 -1.000000 0.000000
vn 0.000000 -1.000000 0.000000
vn 0.000000 -1.000000 0.000000
vn 0.000000 -1.000000 0.000000
vn 0.000000 0.000000 -1.000000
vn -0.000000 0.000000 -1.000000
vn -0.000000 0.000000 -1.000000
vn 0.000000 0.000000 -1.000000
vn -0.002599 0.999905 0.013540
vn -0.053509 0.998171 -0.028136
vn -0.010605 0.999568 -0.027420
vn 0.037437 0.999210 0.013328
vn -0.000000 0.000000 1.000000
vn -0.000000 0.000000 1.000000
vn 0.000000 0.000000 1.000000
vn -0.000000 0.000000 1.000000
vn 0.000000 -1.000000 0.000000
vn 0.000000 -1.000000 0.000000
vn 0.000000 0.000000 -1.000000
vn 0.000000 0.000000 -1.000000
vn 0.043592 0.998883 -0.018255
vn -0.019828 0.999643 -0.017902
vn 0.000000 0.000000 1.000000
vn 0.000000 0.000000 1.000000
vn 0.000000 -1.000000 0.000000
vn 0.000000 -1.000000 0.000000
vn 0.000000 0.000000 -1.000000
vn -0.000000 0.000000 -1.000000
vn 0.073387 0.997143 0.017878
vn 0.059846 0.998054 0.017488
vn 0.000000 0.000000 1.000000
vn 0.000000 0.000000 1.000000
vn 0.000000 0.000000 1.000000
vn 0.000000 0.000000 1.000000
vn 0.023869 0.999686 0.007682
vn -0.031722 0.999468 0.007521
vn 0.000000 0.000000 -1.000000
vn 0.000000 0.000000 -1.000000
vn 0.000000 -1.000000 0.000000
vn 0.000000 -1.000000 0.000000
vn -0.459621 0.888115 0.000000
vn -0.395085 0.918645 0.000000
vn -0.126492 0.991968 0.000000
vn 0.077219 0.996862 -0.017432
vn 0.054379 0.998257 -0.022949
vn -0.037533 0.999242 -0.010286
vn 0.005280 0.999983 -0.002361
vn 0.042431 0.998874 -0.021219
vn -0.054492 0.998010 -0.031739
vn -0.081553 0.996450 -0.020914
vn 0.116118 0.993236 -0.000000
vn 0.344670 0.938724 0.000000
vn 0.388290 0.921537 0.000000
vn 1.000000 0.000000 0.000000
vn 1.000000 0.000000 0.000000
vn 0.000000 -1.000000 0.000000
vn 0.000000 -1.000000 0.000000
vn 0.000000 -1.000000 0.000000
vn 0.000000 -1.000000 0.000000
vn 0.000000 -1.000000 0.000000
vn 0.000000 -1.000000 0.000000
vn 0.000000 -1.000000 0.000000
vn 0.000000 -1.000000 0.000000
vn 0.000000 -1.000000 0.000000
vn 0.000000 -1.000000 0.000000
vn 0.000000 -1.000000 -0.000000
vn 0.000000 -1.000000 -0.000000
vn 0.000000 -1.000000 0.000000
vn -1.000000 0.000000 0.000000
vn -1.000000 0.000000 0.000000
vn 0.000000 -1.000000 0.000000
vn 0.000000 -1.000000 0.000000
vn 0.000000 -1.000000 0.000000
vn 0.000000 -1.000000 0.000000
vn 0.000000 -1.000000 0.000000
vn 0.000000 -1.000000 0.000000
vn 0.000000 -1.000000 0.000000
vn 0.000000 -1.000000 0.000000
vn 0.000000 -1.000000 0.000000
vn 0.000000 -1.000000 0.000000
vn 0.000000 -1.000000 0.000000
vn 0.000000 -1.000000 0.000000
vn 0.000000 -1.000000 0.000000
vn 1.000000 0.000000 0.000000
vn 1.000000 0.000000 0.000000
vn 0.388291 0.921537 -0.000000
vn 0.344670 0.938724 -0.000000
vn -0.012551 0.999824 0.013948
vn -0.094806 0.995254 0.021928
vn 0.037805 0.999256 0.007627
vn -0.017677 0.999844 -0.000062
vn -0.055294 0.998226 0.022075
vn 0.055683 0.998200 0.022270
vn 0.060137 0.998116 -0.012184
vn 0.040671 0.998906 -0.023073
vn -0.126492 0.991968 -0.000000
vn -0.395084 0.918645 -0.000000
vn -0.459620 0.888116 -0.000000
vn -1.000000 0.000000 0.000000
vn -1.000000 0.000000 0.000000
vn 0.000000 -1.000000 0.000000
vn 0.000000 -1.000000 0.000000
vn 0.000000 -1.000000 0.000000
vn 0.000000 -1.000000 0.000000
vn 0.000000 -1.000000 0.000000
vn 0.000000 -1.000000 0.000000
vn 0.000000 -1.000000 0.000000
vn 0.000000 -1.000000 -0.000000
vn 0.000000 -1.000000 -0.000000
vn 0.000000 -1.000000 0.000000
vn 0.000000 -1.000000 0.000000
vn 0.000000 -1.000000 0.000000
vn 0.000000 -1.000000 0.000000
vn 1.000000 0.000000 0.000000
vn 1.000000 0.000000 0.000000
vn 0.344670 0.938724 0.000000
vn 0.388291 0.921537 -0.000000
vn 0.030586 0.999143 0.027887
vn -0.098384 0.994175 0.043996
vn 0.025204 0.999566 0.015270
vn -0.013766 0.999905 -0.000125
vn -0.036884 0.998343 0.044163
vn 0.037203 0.998318 0.044473
vn 0.039979 0.998907 -0.024231
vn 0.068484 0.996589 -0.046057
vn -0.126492 0.991968 0.000000
vn -0.395084 0.918645 0.000000
vn -0.459620 0.888116 0.000000
vn -1.000000 0.000000 0.000000
vn -1.000000 0.000000 0.000000
vn -0.459621 0.888115 0.000000
vn -0.395084 0.918645 0.000000
vn -0.126492 0.991968 0.000000
vn 0.055260 0.997816 -0.036184
vn 0.055301 0.997332 -0.047642
vn -0.024730 0.999466 -0.021339
vn 0.000984 0.999988 -0.004896
vn 0.027972 0.998641 -0.043985
vn -0.051117 0.996522 -0.065817
vn -0.057739 0.997387 -0.043412
vn 0.116118 0.993236 -0.000000
vn 0.344670 0.938724 -0.000000
vn 0.388291 0.921537 0.000000
vn 1.000000 0.000000 0.000000
vn 1.000000 0.000000 0.000000
vn 0.000000 -1.000000 0.000000
vn 0.000000 -1.000000 0.000000
vn 0.000000 -1.000000 0.000000
vn 0.000000 -1.000000 0.000000
vn 0.000000 -1.000000 0.000000
vn 0.000000 -1.000000 0.000000
vn 0.000000 -1.000000 0.000000
vn 0.000000 -1.000000 0.000000
vn 0.000000 -1.000000 0.000000
vn 0.000000 -1.000000 0.000000
vn 0.000000 -1.000000 -0.000000
vn 0.000000 -1.000000 -0.000000
vn 0.000000 -1.000000 0.000000
vn -1.000000 0.000000 0.000000
vn -1.000000 0.000000 0.000000
s 1
g Esc_mid:pCube1
usemtl initialShadingGroup
f 12/19/1 9/15/2 13/20/3 14/22/4
s 2
f 102/126/5 103/127/6 54/72/7 55/73/8
s 3
f 10/17/9 11/18/10 15/23/11 16/24/12
s 4
f 76/96/13 77/97/14 80/102/15 81/103/16
s 5
f 65/84/17 66/86/18 91/114/19 92/116/20
s 6
f 104/128/21 79/100/22 78/98/23 53/70/24
s 4
f 79/101/25 80/102/15 77/97/14 78/99/26
s 3
f 5/5/27 11/18/10 10/17/9 7/7/28
s 2
f 53/71/29 54/72/7 103/127/6 104/129/30
s 1
f 1/1/31 9/15/2 12/19/1 3/3/32
f 14/22/4 13/20/3 17/25/33 18/27/34
s 2
f 101/125/35 102/126/5 55/73/8 56/74/36
s 3
f 16/24/12 15/23/11 19/28/37 20/29/38
s 4
f 75/95/39 76/96/13 81/103/16 82/104/40
s 1
f 28/39/41 25/35/42 21/30/43 22/32/44
s 2
f 93/117/45 94/118/46 63/81/47 64/82/48
s 3
f 26/37/49 27/38/50 23/33/51 24/34/52
s 4
f 67/87/53 68/88/54 89/111/55 90/112/56
s 1
f 22/32/44 21/30/43 2/2/57 4/4/58
s 2
f 92/115/59 93/117/45 64/82/48 65/83/60
s 3
f 24/34/52 23/33/51 6/6/61 8/8/62
s 4
f 66/85/63 67/87/53 90/112/56 91/113/64
f 68/88/54 69/89/65 88/110/66 89/111/55
s 3
f 30/42/67 31/43/68 27/38/50 26/37/49
s 2
f 94/118/46 95/119/69 62/80/70 63/81/47
s 1
f 32/44/71 29/40/72 25/35/42 28/39/41
s 4
f 71/91/73 72/92/74 85/107/75 86/108/76
s 3
f 34/47/77 35/48/78 47/63/79 48/64/80
s 2
f 97/121/81 98/122/82 59/77/83 60/78/84
s 1
f 36/49/85 33/45/86 45/60/87 46/62/88
s 4
f 72/92/74 73/93/89 84/106/90 85/107/75
s 3
f 38/52/91 39/53/92 35/48/78 34/47/77
s 2
f 98/122/82 99/123/93 58/76/94 59/77/83
s 1
f 40/54/95 37/50/96 33/45/86 36/49/85
s 4
f 73/93/89 74/94/97 83/105/98 84/106/90
s 3
f 42/57/99 43/58/100 39/53/92 38/52/91
s 2
f 99/123/93 100/124/101 57/75/102 58/76/94
s 1
f 44/59/103 41/55/104 37/50/96 40/54/95
s 4
f 74/94/97 75/95/39 82/104/40 83/105/98
s 3
f 20/29/38 19/28/37 43/58/100 42/57/99
s 2
f 100/124/101 101/125/35 56/74/36 57/75/102
s 1
f 18/27/34 17/25/33 41/55/104 44/59/103
f 46/62/88 45/60/87 49/65/105 50/67/106
s 2
f 96/120/107 97/121/81 60/78/84 61/79/108
s 3
f 48/64/80 47/63/79 51/68/109 52/69/110
s 4
f 70/90/111 71/91/73 86/108/76 87/109/112
s 1
f 50/67/106 49/65/105 29/40/72 32/44/71
s 2
f 95/119/69 96/120/107 61/79/108 62/80/70
s 3
f 52/69/110 51/68/109 31/43/68 30/42/67
s 4
f 69/89/65 70/90/111 87/109/112 88/110/66
s 2
f 131/161/113 132/162/114 54/72/7 53/71/29
f 55/73/8 54/72/7 132/162/114 133/163/115
f 56/74/36 55/73/8 133/163/115 134/164/116
f 57/75/102 56/74/36 134/164/116 135/165/117
f 58/76/94 57/75/102 135/165/117 136/166/118
f 59/77/83 58/76/94 136/166/118 137/167/119
f 60/78/84 59/77/83 137/167/119 138/168/120
f 61/79/108 60/78/84 138/168/120 139/169/121
f 62/80/70 61/79/108 139/169/121 140/170/122
f 63/81/47 62/80/70 140/170/122 141/171/123
f 64/82/48 63/81/47 141/171/123 142/172/124
f 65/83/60 64/82/48 142/172/124 143/173/125
s 5
f 143/174/126 144/176/127 66/86/18 65/84/17
s 4
f 144/175/128 145/177/129 67/87/53 66/85/63
f 145/177/129 146/178/130 68/88/54 67/87/53
f 146/178/130 147/179/131 69/89/65 68/88/54
f 147/179/131 148/180/132 70/90/111 69/89/65
f 148/180/132 149/181/133 71/91/73 70/90/111
f 149/181/133 150/182/134 72/92/74 71/91/73
f 150/182/134 151/183/135 73/93/89 72/92/74
f 151/183/135 152/184/136 74/94/97 73/93/89
f 152/184/136 153/185/137 75/95/39 74/94/97
f 153/185/137 154/186/138 76/96/13 75/95/39
f 154/186/138 155/187/139 77/97/14 76/96/13
f 78/99/26 77/97/14 155/187/139 156/189/140
s 6
f 53/70/24 78/98/23 156/188/141 131/160/142
s 4
f 105/131/143 106/132/144 80/102/15 79/101/25
f 81/103/16 80/102/15 106/132/144 107/133/145
f 82/104/40 81/103/16 107/133/145 108/134/146
f 83/105/98 82/104/40 108/134/146 109/135/147
f 84/106/90 83/105/98 109/135/147 110/136/148
f 85/107/75 84/106/90 110/136/148 111/137/149
f 86/108/76 85/107/75 111/137/149 112/138/150
f 87/109/112 86/108/76 112/138/150 113/139/151
f 88/110/66 87/109/112 113/139/151 114/140/152
f 89/111/55 88/110/66 114/140/152 115/141/153
f 90/112/56 89/111/55 115/141/153 116/142/154
f 91/113/64 90/112/56 116/142/154 117/143/155
s 5
f 92/116/20 91/114/19 117/144/156 118/146/157
s 2
f 118/145/158 119/147/159 93/117/45 92/115/59
f 119/147/159 120/148/160 94/118/46 93/117/45
f 120/148/160 121/149/161 95/119/69 94/118/46
f 121/149/161 122/150/162 96/120/107 95/119/69
f 122/150/162 123/151/163 97/121/81 96/120/107
f 123/151/163 124/152/164 98/122/82 97/121/81
f 124/152/164 125/153/165 99/123/93 98/122/82
f 125/153/165 126/154/166 100/124/101 99/123/93
f 126/154/166 127/155/167 101/125/35 100/124/101
f 127/155/167 128/156/168 102/126/5 101/125/35
f 128/156/168 129/157/169 103/127/6 102/126/5
f 104/129/30 103/127/6 129/157/169 130/159/170
s 6
f 130/158/171 105/130/172 79/100/22 104/128/21
s 4
f 7/7/173 10/17/174 106/132/144 105/131/143
f 107/133/145 106/132/144 10/17/174 16/24/175
f 108/134/146 107/133/145 16/24/175 20/29/176
f 109/135/147 108/134/146 20/29/176 42/57/177
f 110/136/148 109/135/147 42/57/177 38/52/178
f 111/137/149 110/136/148 38/52/178 34/47/179
f 112/138/150 111/137/149 34/47/179 48/64/180
f 113/139/151 112/138/150 48/64/180 52/69/181
f 114/140/152 113/139/151 52/69/181 30/42/182
f 115/141/153 114/140/152 30/42/182 26/37/183
f 116/142/154 115/141/153 26/37/183 24/34/184
f 117/143/155 116/142/154 24/34/184 8/8/185
s 5
f 118/146/157 117/144/156 8/11/186 6/12/187
s 2
f 23/33/188 119/147/159 118/145/158 6/6/189
f 27/38/190 120/148/160 119/147/159 23/33/188
f 31/43/191 121/149/161 120/148/160 27/38/190
f 51/68/192 122/150/162 121/149/161 31/43/191
f 47/63/193 123/151/163 122/150/162 51/68/192
f 35/48/194 124/152/164 123/151/163 47/63/193
f 39/53/195 125/153/165 124/152/164 35/48/194
f 43/58/196 126/154/166 125/153/165 39/53/195
f 19/28/197 127/155/167 126/154/166 43/58/196
f 15/23/198 128/156/168 127/155/167 19/28/197
f 11/18/199 129/157/169 128/156/168 15/23/198
f 130/159/170 129/157/169 11/18/199 5/5/200
s 6
f 7/13/201 105/130/172 130/158/171 5/14/202
s 2
f 3/3/203 12/19/204 132/162/114 131/161/113
f 133/163/115 132/162/114 12/19/204 14/22/205
f 134/164/116 133/163/115 14/22/205 18/27/206
f 135/165/117 134/164/116 18/27/206 44/59/207
f 136/166/118 135/165/117 44/59/207 40/54/208
f 137/167/119 136/166/118 40/54/208 36/49/209
f 138/168/120 137/167/119 36/49/209 46/62/210
f 139/169/121 138/168/120 46/62/210 50/67/211
f 140/170/122 139/169/121 50/67/211 32/44/212
f 141/171/123 140/170/122 32/44/212 28/39/213
f 142/172/124 141/171/123 28/39/213 22/32/214
f 143/173/125 142/172/124 22/32/214 4/4/215
s 5
f 2/2/216 144/176/127 143/174/126 4/4/217
s 4
f 21/31/218 145/177/129 144/175/128 2/10/219
f 25/36/220 146/178/130 145/177/129 21/31/218
f 29/41/221 147/179/131 146/178/130 25/36/220
f 49/66/222 148/180/132 147/179/131 29/41/221
f 45/61/223 149/181/133 148/180/132 49/66/222
f 33/46/224 150/182/134 149/181/133 45/61/223
f 37/51/225 151/183/135 150/182/134 33/46/224
f 41/56/226 152/184/136 151/183/135 37/51/225
f 17/26/227 153/185/137 152/184/136 41/56/226
f 13/21/228 154/186/138 153/185/137 17/26/227
f 9/16/229 155/187/139 154/186/138 13/21/228
f 156/189/140 155/187/139 9/16/229 1/9/230
s 6
f 131/160/142 156/188/141 1/1/231 3/3/232
