# This file uses centimeters as units for non-parametric coordinates.

mtllib Piedra_5.mtl
g default
v 9.795560 0.285872 1.315425
v 9.842777 0.705271 1.692373
v 9.418612 0.705271 1.268208
v 12.803358 0.705271 1.268208
v 12.407308 0.680130 1.695061
v 12.426411 0.285872 1.315425
v 9.806900 5.195978 0.922851
v 10.203789 5.178668 1.305935
v 10.226299 5.572927 0.884686
v 11.995670 5.572927 0.884686
v 12.033835 5.195978 1.304084
v 12.415070 5.195978 0.922851
v 9.805052 5.178668 -0.907196
v 10.226299 5.572927 -0.884686
v 10.203789 5.178668 -1.305935
v 12.018181 5.178668 -1.305935
v 11.995670 5.572927 -0.884686
v 12.416920 5.178668 -0.907196
v 9.418612 0.705271 -1.268208
v 9.814662 0.680130 -1.695061
v 9.795560 0.285872 -1.315425
v 12.426411 0.285872 -1.315425
v 12.379192 0.705271 -1.692373
v 12.803358 0.705271 -1.268208
v -12.458769 7.026078 1.346738
v -12.427937 7.405124 1.923828
v -12.806982 7.435956 1.346738
v 12.902890 5.593277 0.972488
v 12.629179 5.615541 1.389208
v 12.606915 5.341829 0.972488
v -12.663078 9.205091 1.346738
v -12.284033 9.174258 1.923828
v -12.253201 9.553305 1.346738
v 12.755357 7.166755 0.972488
v 12.733092 6.893043 1.389208
v 13.006804 6.870779 0.972488
v -12.663078 9.205091 -1.346738
v -12.253201 9.553305 -1.346738
v -12.284033 9.174258 -1.923828
v 12.733092 6.893043 -1.389208
v 12.755357 7.166755 -0.972488
v 13.006804 6.870779 -0.972488
v -12.806982 7.435956 -1.346738
v -12.427937 7.405124 -1.923828
v -12.458769 7.026078 -1.346738
v 12.606915 5.341829 -0.972488
v 12.629179 5.615541 -1.389208
v 12.902890 5.593277 -0.972488
v -12.876567 0.029449 1.315425
v -12.829350 0.448848 1.692373
v -13.253515 0.448848 1.268208
v -9.868769 0.448848 1.268208
v -10.264819 0.423706 1.695061
v -10.245716 0.029449 1.315425
v -12.865227 6.634885 0.922851
v -12.468338 6.617576 1.305935
v -12.445827 7.011834 0.884686
v -10.676456 7.011834 0.884686
v -10.638291 6.634885 1.304084
v -10.257057 6.634885 0.922851
v -12.867075 6.617576 -0.907196
v -12.445827 7.011834 -0.884686
v -12.468338 6.617576 -1.305935
v -10.653946 6.617576 -1.305935
v -10.676456 7.011834 -0.884686
v -10.255207 6.617576 -0.907196
v -13.253515 0.448848 -1.268208
v -12.857465 0.423706 -1.695061
v -12.876567 0.029449 -1.315425
v -10.245716 0.029449 -1.315425
v -10.292934 0.448848 -1.692373
v -9.868769 0.448848 -1.268208
vt 0.849027 0.348558
vt 0.866177 0.314258
vt 0.934777 0.314258
vt 0.831877 0.314258
vt 0.728976 0.314258
vt 0.746127 0.348558
vt 0.660376 0.314258
vt 0.866177 0.211358
vt 0.934777 0.211358
vt 0.831877 0.211358
vt 0.763277 0.211358
vt 0.728976 0.211358
vt 0.849027 0.074158
vt 0.643226 0.177058
vt 0.660376 0.211358
vt 0.557476 0.314258
vt 0.626076 0.314258
vt 0.746127 0.451459
vt 0.763277 0.314258
vt 0.849027 0.177058
vt 0.746127 0.177058
vt 0.557476 0.211358
vt 0.626076 0.211358
vt 0.540326 0.348559
vt 0.350027 0.211358
vt 0.332877 0.177058
vt 0.332877 0.074158
vt 0.418627 0.211358
vt 0.315727 0.211358
vt 0.350027 0.725860
vt 0.315727 0.725860
vt 0.247127 0.211358
vt 0.229976 0.177058
vt 0.332877 0.760160
vt 0.418627 0.725860
vt 0.435777 0.760160
vt 0.229977 0.760160
vt 0.247127 0.725860
vt 0.212826 0.211358
vt 0.144226 0.211358
vt 0.127076 0.177058
vt 0.212826 0.725860
vt 0.229976 0.863060
vt 0.144226 0.725860
vt 0.109926 0.211358
vt 0.041326 0.211358
vt 0.109926 0.725860
vt 0.452927 0.725860
vt 0.787353 0.862830
vt 0.804503 0.828530
vt 0.855954 0.828530
vt 0.873104 0.862830
vt 0.770203 0.828530
vt 0.684453 0.862830
vt 0.701603 0.828530
vt 0.770203 0.657030
vt 0.804503 0.657030
vt 0.667303 0.828530
vt 0.684453 0.966190
vt 0.598703 0.828530
vt 0.667303 0.657030
vt 0.701603 0.657030
vt 0.787353 0.622730
vt 0.787353 0.519829
vt 0.855954 0.657030
vt 0.684453 0.622730
vt 0.598703 0.657030
vt 0.581553 0.622730
vt 0.890254 0.657030
vt 0.890254 0.828530
vt 0.564403 0.657030
vt 0.564403 0.828530
vt 0.643226 0.348559
vt 0.948891 0.348559
vt 0.849027 0.451459
vt 0.969077 0.314258
vt 0.951927 0.177058
vt 0.540326 0.177058
vt 0.746127 0.074158
vt 0.969077 0.211358
vt 0.581553 0.862830
vt 0.958854 0.862830
vt 0.787353 0.966190
vt 0.941704 0.828530
vt 0.941704 0.657030
vt 0.684453 0.519829
vt 0.958854 0.622730
vt 0.873104 0.622730
vt 0.452927 0.211358
vt 0.041326 0.725860
vt 0.332877 0.863060
vt 0.024176 0.760160
vt 0.127076 0.760160
vt 0.435777 0.177058
vt 0.024176 0.177058
vt 0.229976 0.074158
vn -0.743744 -0.668464 0.000000
vn -0.743744 -0.668464 0.000000
vn -0.743744 -0.668464 0.000000
vn -0.743744 -0.668464 0.000000
vn -0.003674 -0.680884 0.732382
vn -0.003674 -0.680884 0.732382
vn -0.003674 -0.680884 0.732382
vn -0.003674 -0.680884 0.732382
vn -0.695107 0.116023 0.709482
vn -0.695107 0.116023 0.709482
vn -0.695107 0.116023 0.709482
vn -0.695107 0.116023 0.709482
vn 0.743746 -0.668463 0.000000
vn 0.743746 -0.668463 0.000000
vn 0.743746 -0.668463 0.000000
vn 0.743746 -0.668463 0.000000
vn 0.713955 0.116827 0.690376
vn 0.713955 0.116827 0.690376
vn 0.713955 0.116827 0.690376
vn 0.713955 0.116827 0.690376
vn -0.676046 0.736853 -0.003196
vn -0.676046 0.736853 -0.003196
vn -0.676046 0.736853 -0.003196
vn -0.676046 0.736853 -0.003196
vn -0.003196 0.736853 0.676045
vn -0.003196 0.736853 0.676045
vn -0.003196 0.736853 0.676045
vn -0.003196 0.736853 0.676045
vn 0.676046 0.736853 -0.003196
vn 0.676046 0.736853 -0.003196
vn 0.676046 0.736853 -0.003196
vn 0.676046 0.736853 -0.003196
vn -0.713446 0.119402 -0.690462
vn -0.713446 0.119402 -0.690462
vn -0.713446 0.119402 -0.690462
vn -0.713446 0.119402 -0.690462
vn 0.000000 0.730111 -0.683329
vn 0.000000 0.730111 -0.683329
vn 0.000000 0.730111 -0.683329
vn 0.000000 0.730111 -0.683329
vn 0.702222 0.117333 -0.702223
vn 0.702222 0.117333 -0.702223
vn 0.702222 0.117333 -0.702223
vn 0.702222 0.117333 -0.702223
vn 0.003674 -0.680884 -0.732382
vn 0.003674 -0.680884 -0.732382
vn 0.003674 -0.680884 -0.732382
vn 0.003674 -0.680884 -0.732382
vn -0.000036 0.086161 0.996281
vn -0.000036 0.086161 0.996281
vn -0.000036 0.086161 0.996281
vn -0.000036 0.086161 0.996281
vn 0.000000 1.000000 0.000000
vn 0.000000 1.000000 0.000000
vn 0.000000 1.000000 0.000000
vn 0.000000 1.000000 0.000000
vn 0.000117 0.086122 -0.996285
vn 0.000117 0.086122 -0.996285
vn 0.000117 0.086122 -0.996285
vn 0.000117 0.086122 -0.996285
vn 0.000000 -1.000000 0.000000
vn 0.000000 -1.000000 0.000000
vn 0.000000 -1.000000 0.000000
vn 0.000000 -1.000000 0.000000
vn 0.996286 0.086104 0.000081
vn 0.996286 0.086104 0.000081
vn 0.996286 0.086104 0.000081
vn 0.996286 0.086104 0.000081
vn -0.996286 0.086105 0.000080
vn -0.996286 0.086105 0.000080
vn -0.996286 0.086105 0.000080
vn -0.996286 0.086105 0.000080
vn -0.618026 -0.485889 0.618026
vn -0.618026 -0.485889 0.618026
vn -0.618026 -0.485889 0.618026
vn 0.643475 -0.514542 0.566733
vn 0.643475 -0.514542 0.566733
vn 0.643475 -0.514542 0.566733
vn -0.520796 0.636989 0.568345
vn -0.520796 0.636989 0.568345
vn -0.520796 0.636989 0.568345
vn 0.536559 0.651311 0.536561
vn 0.536559 0.651311 0.536561
vn 0.536559 0.651311 0.536561
vn -0.553267 0.622730 -0.553266
vn -0.553267 0.622730 -0.553266
vn -0.553267 0.622730 -0.553266
vn 0.553265 0.622733 -0.553265
vn 0.553265 0.622733 -0.553265
vn 0.553265 0.622733 -0.553265
vn -0.643475 -0.514541 -0.566734
vn -0.643475 -0.514541 -0.566734
vn -0.643475 -0.514541 -0.566734
vn 0.618026 -0.485889 -0.618026
vn 0.618026 -0.485889 -0.618026
vn 0.618026 -0.485889 -0.618026
vn -0.762107 -0.647451 0.000000
vn -0.762107 -0.647451 0.000000
vn -0.762107 -0.647451 0.000000
vn -0.762107 -0.647451 0.000000
vn -0.047805 -0.833699 0.550146
vn -0.047805 -0.833699 0.550146
vn -0.047805 -0.833699 0.550146
vn -0.047805 -0.833699 0.550146
vn -0.832248 0.067696 0.550255
vn -0.832248 0.067696 0.550255
vn -0.832248 0.067696 0.550255
vn -0.832248 0.067696 0.550255
vn 0.647451 -0.762107 0.000000
vn 0.647451 -0.762107 0.000000
vn 0.647451 -0.762107 0.000000
vn 0.647451 -0.762107 0.000000
vn 0.832248 -0.067695 0.550255
vn 0.832248 -0.067695 0.550255
vn 0.832248 -0.067695 0.550255
vn 0.832248 -0.067695 0.550255
vn -0.647452 0.762106 0.000000
vn -0.647452 0.762106 0.000000
vn -0.647452 0.762106 0.000000
vn -0.647452 0.762106 0.000000
vn 0.087484 0.830473 0.550147
vn 0.087484 0.830473 0.550147
vn 0.087484 0.830473 0.550147
vn 0.087484 0.830473 0.550147
vn 0.762108 0.647450 0.000000
vn 0.762108 0.647450 0.000000
vn 0.762108 0.647450 0.000000
vn 0.762108 0.647450 0.000000
vn -0.832248 0.067696 -0.550255
vn -0.832248 0.067696 -0.550255
vn -0.832248 0.067696 -0.550255
vn -0.832248 0.067696 -0.550255
vn 0.087484 0.830473 -0.550147
vn 0.087484 0.830473 -0.550147
vn 0.087484 0.830473 -0.550147
vn 0.087484 0.830473 -0.550147
vn 0.832248 -0.067695 -0.550255
vn 0.832248 -0.067695 -0.550255
vn 0.832248 -0.067695 -0.550255
vn 0.832248 -0.067695 -0.550255
vn -0.047805 -0.833699 -0.550146
vn -0.047805 -0.833699 -0.550146
vn -0.047805 -0.833699 -0.550146
vn -0.047805 -0.833699 -0.550146
vn 0.021208 -0.001725 0.999774
vn 0.021208 -0.001725 0.999774
vn 0.021208 -0.001725 0.999774
vn 0.021208 -0.001725 0.999774
vn 0.094998 0.995478 0.000000
vn 0.094998 0.995477 0.000000
vn 0.094998 0.995477 0.000000
vn 0.094998 0.995478 0.000000
vn 0.021208 -0.001725 -0.999774
vn 0.021208 -0.001725 -0.999774
vn 0.021208 -0.001725 -0.999774
vn 0.021208 -0.001725 -0.999774
vn -0.067042 -0.997750 0.000000
vn -0.067042 -0.997750 0.000000
vn -0.067042 -0.997750 0.000000
vn -0.067042 -0.997750 0.000000
vn 0.996708 -0.081073 0.000000
vn 0.996708 -0.081073 0.000000
vn 0.996708 -0.081073 0.000000
vn 0.996708 -0.081073 0.000000
vn -0.996708 0.081073 0.000000
vn -0.996708 0.081073 0.000000
vn -0.996708 0.081073 0.000000
vn -0.996708 0.081073 0.000000
vn -0.690791 -0.586864 0.422372
vn -0.690791 -0.586864 0.422372
vn -0.690791 -0.586864 0.422372
vn 0.586864 -0.690793 0.422370
vn 0.586863 -0.690793 0.422370
vn 0.586863 -0.690793 0.422370
vn -0.586865 0.690789 0.422374
vn -0.586865 0.690789 0.422374
vn -0.586865 0.690789 0.422374
vn 0.690794 0.586860 0.422373
vn 0.690794 0.586860 0.422373
vn 0.690794 0.586860 0.422373
vn -0.586865 0.690789 -0.422374
vn -0.586865 0.690789 -0.422374
vn -0.586865 0.690789 -0.422374
vn 0.690794 0.586860 -0.422373
vn 0.690794 0.586860 -0.422373
vn 0.690794 0.586860 -0.422373
vn -0.690791 -0.586864 -0.422372
vn -0.690791 -0.586864 -0.422372
vn -0.690791 -0.586864 -0.422372
vn 0.586863 -0.690793 -0.422370
vn 0.586863 -0.690793 -0.422370
vn 0.586864 -0.690793 -0.422370
vn -0.743743 -0.668466 0.000000
vn -0.743743 -0.668466 0.000000
vn -0.743743 -0.668466 0.000000
vn -0.743743 -0.668466 0.000000
vn -0.003674 -0.680884 0.732382
vn -0.003674 -0.680884 0.732382
vn -0.003674 -0.680884 0.732382
vn -0.003674 -0.680884 0.732382
vn -0.697676 0.084452 0.711418
vn -0.697676 0.084452 0.711418
vn -0.697676 0.084452 0.711418
vn -0.697676 0.084452 0.711418
vn 0.743745 -0.668464 0.000000
vn 0.743745 -0.668464 0.000000
vn 0.743745 -0.668464 0.000000
vn 0.743745 -0.668464 0.000000
vn 0.716767 0.085150 0.692095
vn 0.716767 0.085150 0.692095
vn 0.716767 0.085150 0.692095
vn 0.716767 0.085150 0.692095
vn -0.676046 0.736852 -0.003196
vn -0.676046 0.736852 -0.003196
vn -0.676046 0.736852 -0.003196
vn -0.676046 0.736852 -0.003196
vn -0.003196 0.736853 0.676045
vn -0.003196 0.736853 0.676045
vn -0.003196 0.736853 0.676045
vn -0.003196 0.736853 0.676045
vn 0.676045 0.736854 -0.003196
vn 0.676045 0.736854 -0.003196
vn 0.676045 0.736854 -0.003196
vn 0.676045 0.736854 -0.003196
vn -0.716367 0.086948 -0.692285
vn -0.716367 0.086948 -0.692285
vn -0.716367 0.086948 -0.692285
vn -0.716367 0.086948 -0.692285
vn 0.000000 0.730111 -0.683329
vn 0.000000 0.730111 -0.683329
vn 0.000000 0.730111 -0.683329
vn 0.000000 0.730111 -0.683329
vn 0.704526 0.085366 -0.704526
vn 0.704526 0.085366 -0.704526
vn 0.704526 0.085366 -0.704526
vn 0.704526 0.085366 -0.704526
vn 0.003674 -0.680884 -0.732382
vn 0.003674 -0.680884 -0.732382
vn 0.003674 -0.680884 -0.732382
vn 0.003674 -0.680884 -0.732382
vn -0.000078 0.062673 0.998034
vn -0.000078 0.062673 0.998034
vn -0.000078 0.062673 0.998034
vn -0.000078 0.062673 0.998034
vn 0.000000 1.000000 0.000000
vn 0.000000 1.000000 0.000000
vn 0.000000 1.000000 0.000000
vn 0.000000 1.000000 0.000000
vn 0.000253 0.062611 -0.998038
vn 0.000253 0.062611 -0.998038
vn 0.000253 0.062611 -0.998038
vn 0.000253 0.062611 -0.998038
vn 0.000000 -1.000000 0.000000
vn 0.000000 -1.000000 0.000000
vn 0.000000 -1.000000 0.000000
vn 0.000000 -1.000000 0.000000
vn 0.998040 0.062584 0.000175
vn 0.998040 0.062584 0.000175
vn 0.998040 0.062584 0.000175
vn 0.998040 0.062584 0.000175
vn -0.998040 0.062584 0.000174
vn -0.998040 0.062584 0.000174
vn -0.998040 0.062584 0.000174
vn -0.998040 0.062584 0.000174
vn -0.618025 -0.485891 0.618025
vn -0.618025 -0.485891 0.618025
vn -0.618025 -0.485891 0.618025
vn 0.643475 -0.514542 0.566734
vn 0.643475 -0.514542 0.566734
vn 0.643475 -0.514542 0.566734
vn -0.520796 0.636990 0.568345
vn -0.520796 0.636990 0.568345
vn -0.520796 0.636990 0.568345
vn 0.536559 0.651312 0.536561
vn 0.536559 0.651312 0.536561
vn 0.536559 0.651312 0.536561
vn -0.553268 0.622730 -0.553265
vn -0.553268 0.622730 -0.553265
vn -0.553268 0.622730 -0.553265
vn 0.553265 0.622733 -0.553265
vn 0.553265 0.622733 -0.553265
vn 0.553265 0.622733 -0.553265
vn -0.643475 -0.514541 -0.566734
vn -0.643475 -0.514541 -0.566734
vn -0.643475 -0.514541 -0.566734
vn 0.618026 -0.485889 -0.618026
vn 0.618026 -0.485889 -0.618026
vn 0.618026 -0.485889 -0.618026
s off
g ObstaCULO
usemtl lambert2SG
f 1/1/1 3/2/2 19/3/3 21/74/4
f 2/4/5 1/1/6 6/6/7 5/19/8
f 3/2/9 2/4/10 8/10/11 7/8/12
f 4/5/13 6/6/14 22/73/15 24/7/16
f 5/19/17 4/5/18 12/12/19 11/11/20
f 7/8/21 9/20/22 14/77/23 13/9/24
f 9/20/25 8/10/26 11/11/27 10/21/28
f 10/21/29 12/12/30 18/15/31 17/14/32
f 13/9/33 15/80/34 20/76/35 19/3/36
f 15/22/37 14/78/38 17/14/39 16/23/40
f 16/23/41 18/15/42 24/7/43 23/17/44
f 21/24/45 20/16/46 23/17/47 22/73/48
f 2/4/49 5/19/50 11/11/51 8/10/52
f 9/20/53 10/21/54 17/79/55 14/13/56
f 15/22/57 16/23/58 23/17/59 20/16/60
f 21/75/61 22/18/62 6/6/63 1/1/64
f 4/5/65 24/7/66 18/15/67 12/12/68
f 19/3/69 3/2/70 7/8/71 13/9/72
f 1/1/73 2/4/74 3/2/75
f 4/5/76 5/19/77 6/6/78
f 7/8/79 8/10/80 9/20/81
f 10/21/82 11/11/83 12/12/84
f 13/9/85 14/77/86 15/80/87
f 16/23/88 17/14/89 18/15/90
f 19/3/91 20/76/92 21/74/93
f 22/73/94 23/17/95 24/7/96
f 25/25/97 27/26/98 43/94/99 45/28/100
f 26/29/101 25/25/102 30/30/103 29/31/104
f 27/26/105 26/29/106 32/32/107 31/33/108
f 28/34/109 30/30/110 46/35/111 48/36/112
f 29/31/113 28/34/114 36/37/115 35/38/116
f 31/33/117 33/39/118 38/40/119 37/41/120
f 33/39/121 32/32/122 35/38/123 34/42/124
f 34/42/125 36/37/126 42/93/127 41/44/128
f 37/41/129 39/45/130 44/46/131 43/95/132
f 39/45/133 38/40/134 41/44/135 40/47/136
f 40/47/137 42/93/138 48/92/139 47/90/140
f 45/28/141 44/89/142 47/48/143 46/35/144
f 26/29/145 29/31/146 35/38/147 32/32/148
f 33/39/149 34/42/150 41/44/151 38/40/152
f 39/45/153 40/47/154 47/90/155 44/46/156
f 45/28/157 46/35/158 30/30/159 25/25/160
f 28/34/161 48/91/162 42/43/163 36/37/164
f 43/27/165 27/26/166 31/33/167 37/96/168
f 25/25/169 26/29/170 27/26/171
f 28/34/172 29/31/173 30/30/174
f 31/33/175 32/32/176 33/39/177
f 34/42/178 35/38/179 36/37/180
f 37/41/181 38/40/182 39/45/183
f 40/47/184 41/44/185 42/93/186
f 43/94/187 44/89/188 45/28/189
f 46/35/190 47/48/191 48/36/192
f 49/49/193 51/50/194 67/51/195 69/52/196
f 50/53/197 49/49/198 54/54/199 53/55/200
f 51/50/201 50/53/202 56/56/203 55/57/204
f 52/58/205 54/54/206 70/81/207 72/60/208
f 53/55/209 52/58/210 60/61/211 59/62/212
f 55/57/213 57/63/214 62/88/215 61/65/216
f 57/63/217 56/56/218 59/62/219 58/66/220
f 58/66/221 60/61/222 66/67/223 65/68/224
f 61/65/225 63/69/226 68/70/227 67/51/228
f 63/69/229 62/88/230 65/87/231 64/85/232
f 64/71/233 66/67/234 72/60/235 71/72/236
f 69/52/237 68/70/238 71/84/239 70/82/240
f 50/53/241 53/55/242 59/62/243 56/56/244
f 57/63/245 58/66/246 65/86/247 62/64/248
f 63/69/249 64/85/250 71/84/251 68/70/252
f 69/83/253 70/59/254 54/54/255 49/49/256
f 52/58/257 72/60/258 66/67/259 60/61/260
f 67/51/261 51/50/262 55/57/263 61/65/264
f 49/49/265 50/53/266 51/50/267
f 52/58/268 53/55/269 54/54/270
f 55/57/271 56/56/272 57/63/273
f 58/66/274 59/62/275 60/61/276
f 61/65/277 62/88/278 63/69/279
f 64/71/280 65/68/281 66/67/282
f 67/51/283 68/70/284 69/52/285
f 70/81/286 71/72/287 72/60/288
