# This file uses centimeters as units for non-parametric coordinates.

mtllib Esc_Right.mtl
g default
v 4.687070 -1.639652 -22.068220
v 4.687070 2.723942 -22.068220
v 4.687070 2.723942 22.068220
v 4.687070 -1.639652 22.068220
v 3.123224 -1.639652 -22.068220
v 3.123224 -1.639652 22.068220
v 3.123224 3.533268 22.068220
v 3.123224 3.533268 -22.068220
v 1.113678 -1.639652 -22.068220
v 1.113678 3.533268 -22.068220
v 1.113678 3.533264 22.068220
v 1.113678 -1.639656 22.068220
v -1.581793 -1.639656 -22.068220
v -1.581793 2.723939 -22.068220
v -1.581793 2.723939 22.068220
v -1.581793 -1.639656 22.068220
v -4.558161 -1.639656 -22.068220
v -4.558161 -1.639656 22.068220
v -4.558161 2.723939 22.068220
v -4.558161 2.723939 -22.068220
vt 0.872803 0.027561
vt 0.872803 0.054580
vt 0.861414 0.054580
vt 0.861414 0.027561
vt 0.125000 0.900000
vt 0.125000 0.400000
vt 0.175000 0.400000
vt 0.175000 0.900000
vt 0.872803 0.304729
vt 0.872803 0.331746
vt 0.861414 0.331746
vt 0.861414 0.304729
vt 0.881667 0.304729
vt 0.881667 0.054580
vt 0.906398 0.054580
vt 0.906398 0.304729
vt 0.881667 0.331746
vt 0.100000 0.400000
vt 0.100000 0.900000
vt 0.881667 0.027561
vt 0.846137 0.054580
vt 0.846137 0.027561
vt 0.200000 0.400000
vt 0.200000 0.900000
vt 0.846137 0.331746
vt 0.846137 0.304729
vt 0.558306 0.304729
vt 0.558306 0.054580
vt 0.558306 0.331746
vt 0.700000 0.400000
vt 0.700000 0.900000
vt 0.558306 0.027561
vn 0.000001 0.000000 -1.000000
vn 0.000001 0.000000 -1.000000
vn -0.000000 0.000000 -1.000000
vn -0.000000 0.000000 -1.000000
vn 0.220892 0.975298 0.000000
vn 0.220892 0.975298 0.000000
vn -0.169524 0.985526 0.000000
vn -0.169524 0.985526 0.000000
vn 0.000001 0.000000 1.000000
vn 0.000001 0.000000 1.000000
vn -0.000001 0.000000 1.000000
vn -0.000001 0.000000 1.000000
vn 0.000001 -1.000000 -0.000000
vn 0.000001 -1.000000 -0.000000
vn 0.000001 -1.000000 -0.000000
vn 0.000001 -1.000000 -0.000000
vn 1.000000 0.000000 0.000000
vn 1.000000 0.000000 0.000000
vn 1.000000 0.000000 0.000000
vn 1.000000 0.000000 0.000000
vn 0.000000 -1.000000 -0.000000
vn 0.000000 -1.000000 -0.000000
vn 0.000002 0.000000 1.000000
vn 0.000002 0.000000 1.000000
vn 0.459620 0.888116 0.000000
vn 0.459620 0.888116 0.000000
vn 0.000002 0.000000 -1.000000
vn 0.000002 0.000000 -1.000000
vn -0.000000 0.000000 -1.000000
vn -0.000000 0.000000 -1.000000
vn -0.141261 0.989972 0.000000
vn -0.141261 0.989972 0.000000
vn -0.000001 0.000000 1.000000
vn -0.000001 0.000000 1.000000
vn 0.000000 -1.000000 -0.000000
vn 0.000000 -1.000000 -0.000000
vn 0.000000 -1.000000 -0.000000
vn 0.000000 -1.000000 -0.000000
vn -0.000000 0.000000 1.000000
vn -0.000000 0.000000 1.000000
vn 0.000000 1.000000 0.000000
vn 0.000000 1.000000 0.000000
vn 0.000000 0.000000 -1.000000
vn 0.000000 0.000000 -1.000000
s 1
g polySurface1 pCube2
usemtl lambert3SG
f 8/1/1 5/2/2 9/3/3 10/4/4
s 2
f 7/5/5 8/6/6 10/7/7 11/8/8
s 3
f 6/9/9 7/10/10 11/11/11 12/12/12
s 4
f 5/2/13 6/9/14 12/12/15 9/3/16
s off
f 4/13/17 1/14/18 2/15/19 3/16/20
s 4
f 4/13/21 6/9/14 5/2/13 1/14/22
s 3
f 3/17/23 7/10/10 6/9/9 4/13/24
s 2
f 2/18/25 8/6/6 7/5/5 3/19/26
s 1
f 1/14/27 5/2/2 8/1/1 2/20/28
f 10/4/4 9/3/3 13/21/29 14/22/30
s 2
f 11/8/8 10/7/7 14/23/31 15/24/32
s 3
f 12/12/12 11/11/11 15/25/33 16/26/34
s 4
f 9/3/16 12/12/15 16/26/35 13/21/36
f 13/21/36 16/26/35 18/27/37 17/28/38
s 3
f 16/26/34 15/25/33 19/29/39 18/27/40
s 2
f 15/24/32 14/23/31 20/30/41 19/31/42
s 1
f 14/22/30 13/21/29 17/28/43 20/32/44
