# This file uses centimeters as units for non-parametric coordinates.

mtllib Gemax10.mtl
g default
v -0.000066 -1.194240 0.525307
v 0.771141 0.000067 0.525307
v -0.771141 -0.000067 0.525307
v 0.000066 1.194240 0.525307
v -1.684376 -0.000086 0.000000
v 0.000086 2.230551 0.000000
v -0.771141 -0.000067 -0.525307
v 0.000066 1.194240 -0.525307
v -0.000066 -1.194240 -0.525307
v 0.771141 0.000067 -0.525307
v -0.000086 -2.230551 0.000000
v 1.684376 0.000086 0.000000
v 0.378876 -0.607403 0.525307
v 0.827595 -1.134501 0.000000
v 0.378876 -0.607403 -0.525307
v -0.392199 0.586770 -0.525307
v -0.517100 0.558263 0.000000
v -0.392199 0.586770 0.525307
vt 0.375000 0.000000
vt 0.625000 0.000000
vt 0.375000 0.250000
vt 0.625000 0.250000
vt 0.375000 0.375000
vt 0.625000 0.375000
vt 0.375000 0.500000
vt 0.625000 0.500000
vt 0.375000 0.750000
vt 0.625000 0.750000
vt 0.375000 0.875000
vt 0.625000 0.875000
vt 0.375000 1.000000
vt 0.625000 1.000000
vt 0.875000 0.000000
vt 0.750000 0.000000
vt 0.875000 0.250000
vt 0.750000 0.250000
vt 0.125000 0.000000
vt 0.250000 0.000000
vt 0.125000 0.250000
vt 0.250000 0.250000
vt 0.497841 0.000000
vt 0.497841 1.000000
vt 0.497841 0.875000
vt 0.497841 0.750000
vt 0.497841 0.500000
vt 0.497841 0.375000
vt 0.497841 0.250000
vn 0.000000 0.000000 1.000000
vn 0.000000 0.000000 1.000000
vn 0.000000 0.000000 1.000000
vn 0.000000 0.000000 1.000000
vn -0.794439 0.607344 -0.000000
vn -0.735092 0.494458 0.463843
vn -0.841950 0.335874 0.422266
vn -0.928821 0.370529 0.000000
vn -0.735092 0.494458 -0.463843
vn -0.841950 0.335874 -0.422266
vn 0.000000 0.000000 -1.000000
vn 0.000000 0.000000 -1.000000
vn 0.000000 0.000000 -1.000000
vn 0.000000 0.000000 -1.000000
vn 0.812691 -0.582695 -0.000000
vn 0.497708 -0.356854 -0.790533
vn 0.484696 -0.347525 -0.802681
vn 0.812691 -0.582695 0.000000
vn 0.497708 -0.356854 0.790533
vn 0.484696 -0.347525 0.802681
vn 0.812700 0.582682 0.000000
vn 0.500041 0.358515 -0.788306
vn 0.500041 0.358515 -0.788306
vn 0.812700 0.582682 0.000000
vn 0.500041 0.358515 0.788306
vn 0.500041 0.358515 0.788306
vn -0.500041 -0.358515 -0.788306
vn -0.812700 -0.582682 0.000000
vn -0.812700 -0.582682 0.000000
vn -0.500041 -0.358515 -0.788306
vn -0.500041 -0.358515 0.788306
vn -0.500041 -0.358515 0.788306
vn 0.812691 -0.582695 -0.000000
vn 0.516658 -0.370441 0.771906
vn 0.516658 -0.370441 -0.771906
vn 0.000000 0.000000 -1.000000
vn 0.000000 0.000000 -1.000000
vn -0.595174 0.803597 -0.000000
vn -0.517899 0.699262 -0.492762
vn -0.517899 0.699262 0.492762
vn 0.000000 0.000000 1.000000
vn 0.000000 0.000000 1.000000
s 1
g pCube1
usemtl anisotropic2SG
f 18/29/1 13/23/2 2/2/3 4/4/4
s 2
usemtl anisotropic1SG
f 17/28/5 18/29/6 4/4/7 6/6/8
f 16/27/9 17/28/5 6/6/8 8/8/10
s 3
usemtl anisotropic2SG
f 15/26/11 16/27/12 8/8/13 10/10/14
s 4
usemtl anisotropic1SG
f 14/25/15 15/26/16 10/10/17 12/12/18
f 13/24/19 14/25/15 12/12/18 2/14/20
s 5
f 12/16/21 10/15/22 8/17/23 6/18/24
f 2/2/25 12/16/21 6/18/24 4/4/26
s 6
f 9/19/27 11/20/28 5/22/29 7/21/30
f 11/20/28 1/1/31 3/3/32 5/22/29
s 4
f 11/11/33 14/25/15 13/24/19 1/13/34
f 9/9/35 15/26/16 14/25/15 11/11/33
s 3
usemtl anisotropic2SG
f 7/7/36 16/27/12 15/26/11 9/9/37
s 2
usemtl anisotropic1SG
f 5/5/38 17/28/5 16/27/9 7/7/39
f 3/3/40 18/29/6 17/28/5 5/5/38
s 1
usemtl anisotropic2SG
f 1/1/41 13/23/2 18/29/1 3/3/42
